<?xml version="1.0" encoding="iso-8859-1"?>
<!-- Generator: Adobe Illustrator 25.4.0, SVG Export Plug-In . SVG Version: 6.00 Build 0)  -->
<svg version="1.1" xmlns="http://www.w3.org/2000/svg" xmlns:xlink="http://www.w3.org/1999/xlink" x="0px" y="0px"
	 viewBox="0 0 1280 800" style="enable-background:new 0 0 1280 800;" xml:space="preserve">
<font horiz-adv-x="1000">
<!-- Copyright (C) 2000, 2007 Hoefler &amp; Frere-Jones. http://www.typography.com -->
<!-- Copyright: Copyright 2022 Adobe System Incorporated. All rights reserved. -->
<font-face font-family="Gotham-Bold" units-per-em="1000" underline-position="-100" underline-thickness="50"/>
<missing-glyph horiz-adv-x="500" d="M0,-200l500,0l0,1000l-500,0M71,750l358,0l-179,-390M50,-76l0,752l172,-376M450,676l0,-752l-172,376M250,240l179,-390l-358,0z"/>
<glyph unicode="A" horiz-adv-x="790" d="M24,0l157,0l64,157l296,0l64,-157l161,0l-300,705l-142,0M300,293l93,227l93,-227z"/>
<glyph unicode="&#xC6;" horiz-adv-x="1045" d="M9,0l157,0l83,157l235,0l0,-157l508,0l0,137l-355,0l0,147l305,0l0,137l-305,0l0,142l350,0l0,137l-601,0M321,293l145,274l18,0l0,-274z"/>
<glyph unicode="&#x1FC;" horiz-adv-x="1045" d="M9,0l157,0l83,157l235,0l0,-157l508,0l0,137l-355,0l0,147l305,0l0,137l-305,0l0,142l350,0l0,137l-601,0M321,293l145,274l18,0l0,-274M554,755l116,0l136,100l-131,57z"/>
<glyph unicode="&#xC1;" horiz-adv-x="790" d="M24,0l157,0l64,157l296,0l64,-157l161,0l-300,705l-142,0M300,293l93,227l93,-227M333,765l116,0l136,100l-131,57z"/>
<glyph unicode="&#x102;" horiz-adv-x="790" d="M24,0l157,0l64,157l296,0l64,-157l161,0l-300,705l-142,0M300,293l93,227l93,-227M395,763C501,763 576,816 585,912l-104,0C469,881 445,863 395,863C345,863 321,881 309,912l-104,0C214,816 289,763 395,763z"/>
<glyph unicode="&#xC2;" horiz-adv-x="790" d="M24,0l157,0l64,157l296,0l64,-157l161,0l-300,705l-142,0M300,293l93,227l93,-227M195,760l120,0l79,56l79,-56l122,0l-128,147l-144,0z"/>
<glyph unicode="&#xC4;" horiz-adv-x="790" d="M24,0l157,0l64,157l296,0l64,-157l161,0l-300,705l-142,0M300,293l93,227l93,-227M431,765l146,0l0,127l-146,0M213,765l146,0l0,127l-146,0z"/>
<glyph unicode="&#xC0;" horiz-adv-x="790" d="M24,0l157,0l64,157l296,0l64,-157l161,0l-300,705l-142,0M300,293l93,227l93,-227M336,922l-131,-57l136,-100l116,0z"/>
<glyph unicode="&#x100;" horiz-adv-x="790" d="M24,0l157,0l64,157l296,0l64,-157l161,0l-300,705l-142,0M300,293l93,227l93,-227M205,770l380,0l0,107l-380,0z"/>
<glyph unicode="&#x104;" horiz-adv-x="790" d="M773,-164l0,67C729,-99 703,-85 703,-56C703,-40 710,-21 728,0l38,0l-300,705l-142,0l-300,-705l157,0l64,157l296,0l64,-157l22,0C607,-26 594,-51 594,-80C594,-137 658,-180 773,-164M300,293l93,227l93,-227z"/>
<glyph unicode="&#xC5;" horiz-adv-x="790" d="M271,742C271,710 284,683 306,664l-282,-664l157,0l64,157l296,0l64,-157l161,0l-282,664C505,683 519,710 519,742C519,807 462,852 395,852C328,852 271,807 271,742M300,293l93,227l93,-227M332,742C332,773 357,798 395,798C433,798 458,773 458,742C458,711 433,686 395,686C357,686 332,711 332,742z"/>
<glyph unicode="&#x1FA;" horiz-adv-x="790" d="M271,742C271,710 284,683 306,664l-282,-664l157,0l64,157l296,0l64,-157l161,0l-282,664C505,683 519,710 519,742C519,807 462,852 395,852C328,852 271,807 271,742M300,293l93,227l93,-227M327,880l116,0l142,80l-131,57M332,742C332,773 357,798 395,798C433,798 458,773 458,742C458,711 433,686 395,686C357,686 332,711 332,742z"/>
<glyph unicode="&#xC3;" horiz-adv-x="790" d="M24,0l157,0l64,157l296,0l64,-157l161,0l-300,705l-142,0M300,293l93,227l93,-227M271,755C285,787 298,804 329,804C365,804 423,765 485,765C555,765 587,819 610,903l-81,25C515,896 502,879 471,879C435,879 377,918 315,918C245,918 213,864 190,780z"/>
<glyph unicode="B" horiz-adv-x="722" d="M84,0l333,0C575,0 679,64 679,192l0,2C679,288 629,335 548,366C598,394 640,438 640,517l0,2C640,567 624,606 592,638C552,678 489,700 409,700l-325,0M234,417l0,148l152,0C451,565 487,539 487,493l0,-2C487,439 444,417 376,417M234,135l0,154l178,0C491,289 526,260 526,213l0,-2C526,159 485,135 417,135z"/>
<glyph unicode="C" horiz-adv-x="738" d="M412,-12C547,-12 627,36 699,113l-98,99C546,162 497,130 417,130C297,130 214,230 214,350l0,2C214,472 299,570 417,570C487,570 542,540 596,491l98,113C629,668 550,712 418,712C203,712 53,549 53,350l0,-2C53,147 206,-12 412,-12z"/>
<glyph unicode="&#x106;" horiz-adv-x="738" d="M412,-12C547,-12 627,36 699,113l-98,99C546,162 497,130 417,130C297,130 214,230 214,350l0,2C214,472 299,570 417,570C487,570 542,540 596,491l98,113C629,668 550,712 418,712C203,712 53,549 53,350l0,-2C53,147 206,-12 412,-12M343,765l116,0l136,100l-131,57z"/>
<glyph unicode="&#x10C;" horiz-adv-x="738" d="M412,-12C547,-12 627,36 699,113l-98,99C546,162 497,130 417,130C297,130 214,230 214,350l0,2C214,472 299,570 417,570C487,570 542,540 596,491l98,113C629,668 550,712 418,712C203,712 53,549 53,350l0,-2C53,147 206,-12 412,-12M605,912l-120,0l-79,-56l-79,56l-122,0l128,-147l144,0z"/>
<glyph unicode="&#xC7;" horiz-adv-x="738" d="M373,-173l65,162C557,-5 632,41 699,113l-98,99C546,162 497,130 417,130C297,130 214,230 214,350l0,2C214,472 299,570 417,570C487,570 542,540 596,491l98,113C629,668 550,712 418,712C203,712 53,549 53,350l0,-2C53,176 165,34 326,-2l-80,-118z"/>
<glyph unicode="&#x10A;" horiz-adv-x="738" d="M412,-12C547,-12 627,36 699,113l-98,99C546,162 497,130 417,130C297,130 214,230 214,350l0,2C214,472 299,570 417,570C487,570 542,540 596,491l98,113C629,668 550,712 418,712C203,712 53,549 53,350l0,-2C53,147 206,-12 412,-12M330,765l150,0l0,127l-150,0z"/>
<glyph unicode="D" horiz-adv-x="782" d="M84,0l273,0C577,0 729,153 729,350l0,2C729,549 577,700 357,700l-273,0M238,139l0,422l119,0C483,561 568,474 568,350l0,-2C568,224 483,139 357,139z"/>
<glyph unicode="&#x10E;" horiz-adv-x="782" d="M84,0l273,0C577,0 729,153 729,350l0,2C729,549 577,700 357,700l-273,0M238,139l0,422l119,0C483,561 568,474 568,350l0,-2C568,224 483,139 357,139M578,902l-120,0l-79,-56l-79,56l-122,0l128,-147l144,0z"/>
<glyph unicode="&#x110;" horiz-adv-x="812" d="M114,0l273,0C607,0 759,153 759,350l0,2C759,549 607,700 387,700l-273,0l0,-280l-75,0l0,-136l75,0M266,139l0,145l152,0l0,136l-152,0l0,141l121,0C513,561 598,474 598,350l0,-2C598,224 513,139 387,139z"/>
<glyph unicode="E" horiz-adv-x="670" d="M84,0l533,0l0,137l-380,0l0,147l330,0l0,137l-330,0l0,142l375,0l0,137l-528,0z"/>
<glyph unicode="&#xC9;" horiz-adv-x="670" d="M84,0l533,0l0,137l-380,0l0,147l330,0l0,137l-330,0l0,142l375,0l0,137l-528,0M288,755l116,0l136,100l-131,57z"/>
<glyph unicode="&#x114;" horiz-adv-x="670" d="M84,0l533,0l0,137l-380,0l0,147l330,0l0,137l-330,0l0,142l375,0l0,137l-528,0M350,753C456,753 531,806 540,902l-104,0C424,871 400,853 350,853C300,853 276,871 264,902l-104,0C169,806 244,753 350,753z"/>
<glyph unicode="&#x11A;" horiz-adv-x="670" d="M84,0l533,0l0,137l-380,0l0,147l330,0l0,137l-330,0l0,142l375,0l0,137l-528,0M550,902l-120,0l-79,-56l-79,56l-122,0l128,-147l144,0z"/>
<glyph unicode="&#xCA;" horiz-adv-x="670" d="M84,0l533,0l0,137l-380,0l0,147l330,0l0,137l-330,0l0,142l375,0l0,137l-528,0M150,755l120,0l79,56l79,-56l122,0l-128,147l-144,0z"/>
<glyph unicode="&#xCB;" horiz-adv-x="670" d="M84,0l533,0l0,137l-380,0l0,147l330,0l0,137l-330,0l0,142l375,0l0,137l-528,0M386,755l146,0l0,127l-146,0M168,755l146,0l0,127l-146,0z"/>
<glyph unicode="&#x116;" horiz-adv-x="670" d="M84,0l533,0l0,137l-380,0l0,147l330,0l0,137l-330,0l0,142l375,0l0,137l-528,0M275,755l150,0l0,127l-150,0z"/>
<glyph unicode="&#xC8;" horiz-adv-x="670" d="M84,0l533,0l0,137l-380,0l0,147l330,0l0,137l-330,0l0,142l375,0l0,137l-528,0M291,912l-131,-57l136,-100l116,0z"/>
<glyph unicode="&#x112;" horiz-adv-x="670" d="M84,0l533,0l0,137l-380,0l0,147l330,0l0,137l-330,0l0,142l375,0l0,137l-528,0M160,760l380,0l0,107l-380,0z"/>
<glyph unicode="&#x118;" horiz-adv-x="670" d="M84,0l387,0C451,-26 438,-51 438,-80C438,-137 502,-180 617,-164l0,67C573,-99 547,-85 547,-56C547,-40 554,-21 572,0l45,0l0,137l-380,0l0,147l330,0l0,137l-330,0l0,142l375,0l0,137l-528,0z"/>
<glyph unicode="&#xD0;" horiz-adv-x="812" d="M114,0l273,0C607,0 759,153 759,350l0,2C759,549 607,700 387,700l-273,0l0,-280l-75,0l0,-136l75,0M266,139l0,145l152,0l0,136l-152,0l0,141l121,0C513,561 598,474 598,350l0,-2C598,224 513,139 387,139z"/>
<glyph unicode="&#x20AC;" horiz-adv-x="720" d="M680,584C627,658 558,712 434,712C286,712 184,619 143,487l-94,0l0,-101l75,0C123,374 123,361 123,349C123,338 123,328 124,318l-75,0l0,-101l92,0C180,80 284,-12 437,-12C552,-12 623,43 682,126l-110,81C528,153 495,125 437,125C374,125 328,158 302,217l186,0l0,101l-208,0C279,328 279,340 279,351C279,363 279,375 280,386l208,0l0,101l-184,0C329,542 372,575 431,575C489,575 526,547 564,496z"/>
<glyph unicode="F" horiz-adv-x="656" d="M84,0l154,0l0,271l334,0l0,140l-334,0l0,149l379,0l0,140l-533,0z"/>
<glyph unicode="G" horiz-adv-x="784" d="M421,-12C549,-12 648,38 720,99l0,304l-304,0l0,-133l155,0l0,-100C532,142 482,128 426,128C302,128 214,222 214,350l0,2C214,471 303,570 415,570C496,570 544,544 598,499l97,117C622,678 546,712 420,712C208,712 53,549 53,350l0,-2C53,141 203,-12 421,-12z"/>
<glyph unicode="&#x11E;" horiz-adv-x="784" d="M421,-12C549,-12 648,38 720,99l0,304l-304,0l0,-133l155,0l0,-100C532,142 482,128 426,128C302,128 214,222 214,350l0,2C214,471 303,570 415,570C496,570 544,544 598,499l97,117C622,678 546,712 420,712C208,712 53,549 53,350l0,-2C53,141 203,-12 421,-12M412,763C518,763 593,816 602,912l-104,0C486,881 462,863 412,863C362,863 338,881 326,912l-104,0C231,816 306,763 412,763z"/>
<glyph unicode="&#x122;" horiz-adv-x="784" d="M421,-12C549,-12 648,38 720,99l0,304l-304,0l0,-133l155,0l0,-100C532,142 482,128 426,128C302,128 214,222 214,350l0,2C214,471 303,570 415,570C496,570 544,544 598,499l97,117C622,678 546,712 420,712C208,712 53,549 53,350l0,-2C53,141 203,-12 421,-12M339,-297C431,-295 481,-257 481,-161l0,97l-138,0l0,-115l64,0C410,-221 384,-246 331,-251z"/>
<glyph unicode="&#x120;" horiz-adv-x="784" d="M421,-12C549,-12 648,38 720,99l0,304l-304,0l0,-133l155,0l0,-100C532,142 482,128 426,128C302,128 214,222 214,350l0,2C214,471 303,570 415,570C496,570 544,544 598,499l97,117C622,678 546,712 420,712C208,712 53,549 53,350l0,-2C53,141 203,-12 421,-12M337,765l150,0l0,127l-150,0z"/>
<glyph unicode="H" horiz-adv-x="760" d="M84,0l154,0l0,281l284,0l0,-281l154,0l0,700l-154,0l0,-277l-284,0l0,277l-154,0z"/>
<glyph unicode="&#x126;" horiz-adv-x="760" d="M14,512l70,0l0,-512l154,0l0,281l284,0l0,-281l154,0l0,512l70,0l0,105l-70,0l0,83l-154,0l0,-83l-284,0l0,83l-154,0l0,-83l-70,0M238,423l0,91l284,0l0,-91z"/>
<glyph unicode="I" horiz-adv-x="336" d="M91,0l154,0l0,700l-154,0z"/>
<glyph unicode="&#xCD;" horiz-adv-x="336" d="M91,0l154,0l0,700l-154,0M106,755l116,0l136,100l-131,57z"/>
<glyph unicode="&#x12C;" horiz-adv-x="336" d="M91,0l154,0l0,700l-154,0M168,753C274,753 349,806 358,902l-104,0C242,871 218,853 168,853C118,853 94,871 82,902l-104,0C-13,806 62,753 168,753z"/>
<glyph unicode="&#xCE;" horiz-adv-x="336" d="M91,0l154,0l0,700l-154,0M-32,755l120,0l79,56l79,-56l122,0l-128,147l-144,0z"/>
<glyph unicode="&#xCF;" horiz-adv-x="336" d="M91,0l154,0l0,700l-154,0M204,755l146,0l0,127l-146,0M-14,755l146,0l0,127l-146,0z"/>
<glyph unicode="&#x130;" horiz-adv-x="336" d="M91,0l154,0l0,700l-154,0M93,755l150,0l0,127l-150,0z"/>
<glyph unicode="&#xCC;" horiz-adv-x="336" d="M91,0l154,0l0,700l-154,0M109,912l-131,-57l136,-100l116,0z"/>
<glyph unicode="&#x12A;" horiz-adv-x="336" d="M91,0l154,0l0,700l-154,0M-22,760l380,0l0,107l-380,0z"/>
<glyph unicode="&#x12E;" horiz-adv-x="336" d="M91,0l24,0C95,-26 82,-51 82,-80C82,-137 146,-180 261,-164l0,67C217,-99 191,-85 191,-56C191,-40 198,-21 216,0l29,0l0,700l-154,0z"/>
<glyph unicode="J" horiz-adv-x="564" d="M243,-10C319,-10 382,12 425,55C467,97 491,159 491,242l0,458l-158,0l0,-451C333,168 297,133 239,133C190,133 151,159 111,203l-97,-108C62,38 134,-10 243,-10z"/>
<glyph unicode="K" horiz-adv-x="730" d="M84,0l154,0l0,214l81,84l217,-298l185,0l-298,403l285,297l-186,0l-284,-306l0,306l-154,0z"/>
<glyph unicode="&#x136;" horiz-adv-x="730" d="M84,0l154,0l0,214l81,84l217,-298l185,0l-298,403l285,297l-186,0l-284,-306l0,306l-154,0M293,-287C385,-285 435,-247 435,-151l0,97l-138,0l0,-115l64,0C364,-211 338,-236 285,-241z"/>
<glyph unicode="L" horiz-adv-x="619" d="M84,0l503,0l0,140l-349,0l0,560l-154,0z"/>
<glyph unicode="&#x139;" horiz-adv-x="619" d="M84,0l503,0l0,140l-349,0l0,560l-154,0M119,755l116,0l136,100l-131,57z"/>
<glyph unicode="&#x13D;" horiz-adv-x="619" d="M84,0l503,0l0,140l-349,0l0,560l-154,0M307,492l60,0l59,205l0,3l-109,0z"/>
<glyph unicode="&#x13B;" horiz-adv-x="619" d="M84,0l503,0l0,140l-349,0l0,560l-154,0M262,-292C354,-290 404,-252 404,-156l0,97l-138,0l0,-115l64,0C333,-216 307,-241 254,-246z"/>
<glyph unicode="&#x13F;" horiz-adv-x="619" d="M411,315l144,0l0,135l-144,0M84,0l503,0l0,140l-349,0l0,560l-154,0z"/>
<glyph unicode="&#x141;" horiz-adv-x="649" d="M415,376l0,144l-149,-66l0,246l-152,0l0,-313l-75,-33l0,-144l75,33l0,-243l503,0l0,140l-351,0l0,170z"/>
<glyph unicode="M" horiz-adv-x="868" d="M84,0l151,0l0,454l195,-296l4,0l197,299l0,-457l153,0l0,700l-166,0l-184,-296l-184,296l-166,0z"/>
<glyph unicode="N" horiz-adv-x="790" d="M84,0l152,0l0,445l339,-445l131,0l0,700l-152,0l0,-431l-328,431l-142,0z"/>
<glyph unicode="&#x143;" horiz-adv-x="790" d="M84,0l152,0l0,445l339,-445l131,0l0,700l-152,0l0,-431l-328,431l-142,0M333,755l116,0l136,100l-131,57z"/>
<glyph unicode="&#x147;" horiz-adv-x="790" d="M84,0l152,0l0,445l339,-445l131,0l0,700l-152,0l0,-431l-328,431l-142,0M595,902l-120,0l-79,-56l-79,56l-122,0l128,-147l144,0z"/>
<glyph unicode="&#x145;" horiz-adv-x="790" d="M84,0l152,0l0,445l339,-445l131,0l0,700l-152,0l0,-431l-328,431l-142,0M322,-287C414,-285 464,-247 464,-151l0,97l-138,0l0,-115l64,0C393,-211 367,-236 314,-241z"/>
<glyph unicode="&#xD1;" horiz-adv-x="790" d="M84,0l152,0l0,445l339,-445l131,0l0,700l-152,0l0,-431l-328,431l-142,0M271,745C285,777 298,794 329,794C365,794 423,755 485,755C555,755 587,809 610,893l-81,25C515,886 502,869 471,869C435,869 377,908 315,908C245,908 213,854 190,770z"/>
<glyph unicode="O" horiz-adv-x="850" d="M424,-12C640,-12 797,151 797,350l0,2C797,551 642,712 426,712C210,712 53,549 53,350l0,-2C53,149 208,-12 424,-12M426,130C302,130 214,230 214,350l0,2C214,472 300,570 424,570C548,570 636,470 636,350l0,-2C636,228 550,130 426,130z"/>
<glyph unicode="&#x152;" horiz-adv-x="1075" d="M425,0l597,0l0,137l-355,0l0,147l305,0l0,137l-305,0l0,142l350,0l0,137l-592,0C205,700 53,547 53,350l0,-2C53,151 205,0 425,0M425,139C299,139 214,226 214,350l0,2C214,476 299,561 425,561l89,0l0,-422z"/>
<glyph unicode="&#xD3;" horiz-adv-x="850" d="M424,-12C640,-12 797,151 797,350l0,2C797,551 642,712 426,712C210,712 53,549 53,350l0,-2C53,149 208,-12 424,-12M426,130C302,130 214,230 214,350l0,2C214,472 300,570 424,570C548,570 636,470 636,350l0,-2C636,228 550,130 426,130M363,765l116,0l136,100l-131,57z"/>
<glyph unicode="&#x14E;" horiz-adv-x="850" d="M424,-12C640,-12 797,151 797,350l0,2C797,551 642,712 426,712C210,712 53,549 53,350l0,-2C53,149 208,-12 424,-12M426,130C302,130 214,230 214,350l0,2C214,472 300,570 424,570C548,570 636,470 636,350l0,-2C636,228 550,130 426,130M425,763C531,763 606,816 615,912l-104,0C499,881 475,863 425,863C375,863 351,881 339,912l-104,0C244,816 319,763 425,763z"/>
<glyph unicode="&#xD4;" horiz-adv-x="850" d="M424,-12C640,-12 797,151 797,350l0,2C797,551 642,712 426,712C210,712 53,549 53,350l0,-2C53,149 208,-12 424,-12M426,130C302,130 214,230 214,350l0,2C214,472 300,570 424,570C548,570 636,470 636,350l0,-2C636,228 550,130 426,130M225,765l120,0l79,56l79,-56l122,0l-128,147l-144,0z"/>
<glyph unicode="&#xD6;" horiz-adv-x="850" d="M424,-12C640,-12 797,151 797,350l0,2C797,551 642,712 426,712C210,712 53,549 53,350l0,-2C53,149 208,-12 424,-12M426,130C302,130 214,230 214,350l0,2C214,472 300,570 424,570C548,570 636,470 636,350l0,-2C636,228 550,130 426,130M461,765l146,0l0,127l-146,0M243,765l146,0l0,127l-146,0z"/>
<glyph unicode="&#xD2;" horiz-adv-x="850" d="M424,-12C640,-12 797,151 797,350l0,2C797,551 642,712 426,712C210,712 53,549 53,350l0,-2C53,149 208,-12 424,-12M426,130C302,130 214,230 214,350l0,2C214,472 300,570 424,570C548,570 636,470 636,350l0,-2C636,228 550,130 426,130M366,922l-131,-57l136,-100l116,0z"/>
<glyph unicode="&#x150;" horiz-adv-x="850" d="M424,-12C640,-12 797,151 797,350l0,2C797,551 642,712 426,712C210,712 53,549 53,350l0,-2C53,149 208,-12 424,-12M426,130C302,130 214,230 214,350l0,2C214,472 300,570 424,570C548,570 636,470 636,350l0,-2C636,228 550,130 426,130M262,765l111,0l136,100l-126,57M452,765l111,0l136,100l-126,57z"/>
<glyph unicode="&#x14C;" horiz-adv-x="850" d="M424,-12C640,-12 797,151 797,350l0,2C797,551 642,712 426,712C210,712 53,549 53,350l0,-2C53,149 208,-12 424,-12M426,130C302,130 214,230 214,350l0,2C214,472 300,570 424,570C548,570 636,470 636,350l0,-2C636,228 550,130 426,130M235,770l380,0l0,107l-380,0z"/>
<glyph unicode="&#xD8;" horiz-adv-x="850" d="M658,705l-39,-43C564,693 498,712 426,712C210,712 53,549 53,350l0,-2C53,256 86,172 143,109l-98,-114l147,0l39,43C286,6 351,-12 424,-12C640,-12 797,151 797,350l0,2C797,444 764,528 707,591l98,114M426,127C389,127 356,136 327,151l277,323C626,438 639,395 639,350l0,-2C639,227 551,127 426,127M211,350l0,2C211,473 299,573 424,573C460,573 494,564 523,549l-277,-323C223,262 211,304 211,350z"/>
<glyph unicode="&#x1FE;" horiz-adv-x="850" d="M658,705l-39,-43C564,693 498,712 426,712C210,712 53,549 53,350l0,-2C53,256 86,172 143,109l-98,-114l147,0l39,43C286,6 351,-12 424,-12C640,-12 797,151 797,350l0,2C797,444 764,528 707,591l98,114M426,127C389,127 356,136 327,151l277,323C626,438 639,395 639,350l0,-2C639,227 551,127 426,127M211,350l0,2C211,473 299,573 424,573C460,573 494,564 523,549l-277,-323C223,262 211,304 211,350M363,765l116,0l136,100l-131,57z"/>
<glyph unicode="&#xD5;" horiz-adv-x="850" d="M424,-12C640,-12 797,151 797,350l0,2C797,551 642,712 426,712C210,712 53,549 53,350l0,-2C53,149 208,-12 424,-12M426,130C302,130 214,230 214,350l0,2C214,472 300,570 424,570C548,570 636,470 636,350l0,-2C636,228 550,130 426,130M301,755C315,787 328,804 359,804C395,804 453,765 515,765C585,765 617,819 640,903l-81,25C545,896 532,879 501,879C465,879 407,918 345,918C275,918 243,864 220,780z"/>
<glyph unicode="P" horiz-adv-x="668" d="M84,0l154,0l0,210l117,0C512,210 638,294 638,456l0,2C638,601 537,700 370,700l-286,0M238,347l0,214l119,0C434,561 482,524 482,455l0,-2C482,393 437,347 360,347z"/>
<glyph unicode="Q" horiz-adv-x="850" d="M807,88l-72,61C774,207 797,276 797,350l0,2C797,551 642,712 426,712C210,712 53,549 53,350l0,-2C53,149 208,-12 424,-12C502,-12 573,10 632,48l77,-69M426,130C302,130 214,230 214,350l0,2C214,472 300,570 424,570C548,570 636,470 636,350l0,-2C636,313 629,280 617,252l-115,104l-98,-110l114,-97C491,136 460,130 426,130z"/>
<glyph unicode="R" horiz-adv-x="723" d="M84,0l154,0l0,224l121,0l150,-224l180,0l-171,250C607,283 668,354 668,467l0,2C668,535 647,590 608,629C562,675 493,700 404,700l-320,0M238,360l0,201l153,0C466,561 512,527 512,461l0,-2C512,400 469,360 394,360z"/>
<glyph unicode="&#x154;" horiz-adv-x="723" d="M84,0l154,0l0,224l121,0l150,-224l180,0l-171,250C607,283 668,354 668,467l0,2C668,535 647,590 608,629C562,675 493,700 404,700l-320,0M238,360l0,201l153,0C466,561 512,527 512,461l0,-2C512,400 469,360 394,360M291,755l116,0l136,100l-131,57z"/>
<glyph unicode="&#x158;" horiz-adv-x="723" d="M84,0l154,0l0,224l121,0l150,-224l180,0l-171,250C607,283 668,354 668,467l0,2C668,535 647,590 608,629C562,675 493,700 404,700l-320,0M238,360l0,201l153,0C466,561 512,527 512,461l0,-2C512,400 469,360 394,360M553,902l-120,0l-79,-56l-79,56l-122,0l128,-147l144,0z"/>
<glyph unicode="&#x156;" horiz-adv-x="723" d="M84,0l154,0l0,224l121,0l150,-224l180,0l-171,250C607,283 668,354 668,467l0,2C668,535 647,590 608,629C562,675 493,700 404,700l-320,0M238,360l0,201l153,0C466,561 512,527 512,461l0,-2C512,400 469,360 394,360M280,-287C372,-285 422,-247 422,-151l0,97l-138,0l0,-115l64,0C351,-211 325,-236 272,-241z"/>
<glyph unicode="S" horiz-adv-x="640" d="M333,-10C484,-10 590,68 590,207l0,2C590,331 510,382 368,419C247,450 217,465 217,511l0,2C217,547 248,574 307,574C366,574 427,548 489,505l80,116C498,678 411,710 309,710C166,710 64,626 64,499l0,-2C64,358 155,319 296,283C413,253 437,233 437,194l0,-2C437,151 399,126 336,126C256,126 190,159 127,211l-91,-109C120,27 227,-10 333,-10z"/>
<glyph unicode="&#x15A;" horiz-adv-x="640" d="M333,-10C484,-10 590,68 590,207l0,2C590,331 510,382 368,419C247,450 217,465 217,511l0,2C217,547 248,574 307,574C366,574 427,548 489,505l80,116C498,678 411,710 309,710C166,710 64,626 64,499l0,-2C64,358 155,319 296,283C413,253 437,233 437,194l0,-2C437,151 399,126 336,126C256,126 190,159 127,211l-91,-109C120,27 227,-10 333,-10M262,765l116,0l136,100l-131,57z"/>
<glyph unicode="&#x160;" horiz-adv-x="640" d="M333,-10C484,-10 590,68 590,207l0,2C590,331 510,382 368,419C247,450 217,465 217,511l0,2C217,547 248,574 307,574C366,574 427,548 489,505l80,116C498,678 411,710 309,710C166,710 64,626 64,499l0,-2C64,358 155,319 296,283C413,253 437,233 437,194l0,-2C437,151 399,126 336,126C256,126 190,159 127,211l-91,-109C120,27 227,-10 333,-10M524,912l-120,0l-79,-56l-79,56l-122,0l128,-147l144,0z"/>
<glyph unicode="&#x15E;" horiz-adv-x="640" d="M315,-173l67,166C506,8 590,83 590,207l0,2C590,331 510,382 368,419C247,450 217,465 217,511l0,2C217,547 248,574 307,574C366,574 427,548 489,505l80,116C498,678 411,710 309,710C166,710 64,626 64,499l0,-2C64,358 155,319 296,283C413,253 437,233 437,194l0,-2C437,151 399,126 336,126C256,126 190,159 127,211l-91,-109C102,42 183,7 266,-5l-78,-115z"/>
<glyph unicode="&#x218;" horiz-adv-x="640" d="M333,-10C484,-10 590,68 590,207l0,2C590,331 510,382 368,419C247,450 217,465 217,511l0,2C217,547 248,574 307,574C366,574 427,548 489,505l80,116C498,678 411,710 309,710C166,710 64,626 64,499l0,-2C64,358 155,319 296,283C413,253 437,233 437,194l0,-2C437,151 399,126 336,126C256,126 190,159 127,211l-91,-109C120,27 227,-10 333,-10M251,-297C343,-295 393,-257 393,-161l0,97l-138,0l0,-115l64,0C322,-221 296,-246 243,-251z"/>
<glyph unicode="T" horiz-adv-x="648" d="M247,0l154,0l0,558l213,0l0,142l-580,0l0,-142l213,0z"/>
<glyph unicode="&#x164;" horiz-adv-x="648" d="M247,0l154,0l0,558l213,0l0,142l-580,0l0,-142l213,0M524,902l-120,0l-79,-56l-79,56l-122,0l128,-147l144,0z"/>
<glyph unicode="&#x162;" horiz-adv-x="648" d="M247,0l154,0l0,558l213,0l0,142l-580,0l0,-142l213,0M251,-292C343,-290 393,-252 393,-156l0,97l-138,0l0,-115l64,0C322,-216 296,-241 243,-246z"/>
<glyph unicode="&#xDE;" horiz-adv-x="673" d="M84,0l154,0l0,108l117,0C512,108 638,192 638,354l0,2C638,499 537,598 370,598l-132,0l0,102l-154,0M238,245l0,214l119,0C434,459 482,422 482,353l0,-2C482,291 437,245 360,245z"/>
<glyph unicode="U" horiz-adv-x="756" d="M376,-11C564,-11 683,93 683,305l0,395l-154,0l0,-401C529,188 472,131 378,131C284,131 227,190 227,304l0,396l-154,0l0,-400C73,94 188,-11 376,-11z"/>
<glyph unicode="&#xDA;" horiz-adv-x="756" d="M376,-11C564,-11 683,93 683,305l0,395l-154,0l0,-401C529,188 472,131 378,131C284,131 227,190 227,304l0,396l-154,0l0,-400C73,94 188,-11 376,-11M316,755l116,0l136,100l-131,57z"/>
<glyph unicode="&#x16C;" horiz-adv-x="756" d="M376,-11C564,-11 683,93 683,305l0,395l-154,0l0,-401C529,188 472,131 378,131C284,131 227,190 227,304l0,396l-154,0l0,-400C73,94 188,-11 376,-11M378,743C484,743 559,796 568,892l-104,0C452,861 428,843 378,843C328,843 304,861 292,892l-104,0C197,796 272,743 378,743z"/>
<glyph unicode="&#xDB;" horiz-adv-x="756" d="M376,-11C564,-11 683,93 683,305l0,395l-154,0l0,-401C529,188 472,131 378,131C284,131 227,190 227,304l0,396l-154,0l0,-400C73,94 188,-11 376,-11M178,755l120,0l79,56l79,-56l122,0l-128,147l-144,0z"/>
<glyph unicode="&#xDC;" horiz-adv-x="756" d="M376,-11C564,-11 683,93 683,305l0,395l-154,0l0,-401C529,188 472,131 378,131C284,131 227,190 227,304l0,396l-154,0l0,-400C73,94 188,-11 376,-11M414,755l146,0l0,127l-146,0M196,755l146,0l0,127l-146,0z"/>
<glyph unicode="&#xD9;" horiz-adv-x="756" d="M376,-11C564,-11 683,93 683,305l0,395l-154,0l0,-401C529,188 472,131 378,131C284,131 227,190 227,304l0,396l-154,0l0,-400C73,94 188,-11 376,-11M319,912l-131,-57l136,-100l116,0z"/>
<glyph unicode="&#x170;" horiz-adv-x="756" d="M376,-11C564,-11 683,93 683,305l0,395l-154,0l0,-401C529,188 472,131 378,131C284,131 227,190 227,304l0,396l-154,0l0,-400C73,94 188,-11 376,-11M215,755l111,0l136,100l-126,57M405,755l111,0l136,100l-126,57z"/>
<glyph unicode="&#x16A;" horiz-adv-x="756" d="M376,-11C564,-11 683,93 683,305l0,395l-154,0l0,-401C529,188 472,131 378,131C284,131 227,190 227,304l0,396l-154,0l0,-400C73,94 188,-11 376,-11M188,760l380,0l0,107l-380,0z"/>
<glyph unicode="&#x172;" horiz-adv-x="756" d="M467,-164l0,67C423,-99 397,-85 397,-56C397,-42 401,-27 414,-9C580,4 683,108 683,305l0,395l-154,0l0,-401C529,188 472,131 378,131C284,131 227,190 227,304l0,396l-154,0l0,-400C73,117 164,13 316,-7C299,-31 288,-54 288,-80C288,-137 352,-180 467,-164z"/>
<glyph unicode="&#x16E;" horiz-adv-x="756" d="M376,-11C564,-11 683,93 683,305l0,395l-154,0l0,-401C529,188 472,131 378,131C284,131 227,190 227,304l0,396l-154,0l0,-400C73,94 188,-11 376,-11M254,838C254,773 311,728 378,728C445,728 502,773 502,838C502,903 445,948 378,948C311,948 254,903 254,838M315,838C315,869 340,894 378,894C416,894 441,869 441,838C441,807 416,782 378,782C340,782 315,807 315,838z"/>
<glyph unicode="V" horiz-adv-x="750" d="M307,-5l136,0l283,705l-166,0l-183,-493l-183,493l-170,0z"/>
<glyph unicode="W" horiz-adv-x="1122" d="M269,-5l134,0l158,458l158,-458l134,0l239,705l-161,0l-145,-474l-157,476l-132,0l-157,-476l-145,474l-165,0z"/>
<glyph unicode="&#x1E82;" horiz-adv-x="1122" d="M269,-5l134,0l158,458l158,-458l134,0l239,705l-161,0l-145,-474l-157,476l-132,0l-157,-476l-145,474l-165,0M499,755l116,0l136,100l-131,57z"/>
<glyph unicode="&#x174;" horiz-adv-x="1122" d="M269,-5l134,0l158,458l158,-458l134,0l239,705l-161,0l-145,-474l-157,476l-132,0l-157,-476l-145,474l-165,0M361,755l120,0l79,56l79,-56l122,0l-128,147l-144,0z"/>
<glyph unicode="&#x1E84;" horiz-adv-x="1122" d="M269,-5l134,0l158,458l158,-458l134,0l239,705l-161,0l-145,-474l-157,476l-132,0l-157,-476l-145,474l-165,0M597,755l146,0l0,127l-146,0M379,755l146,0l0,127l-146,0z"/>
<glyph unicode="&#x1E80;" horiz-adv-x="1122" d="M269,-5l134,0l158,458l158,-458l134,0l239,705l-161,0l-145,-474l-157,476l-132,0l-157,-476l-145,474l-165,0M502,912l-131,-57l136,-100l116,0z"/>
<glyph unicode="X" horiz-adv-x="732" d="M31,0l175,0l158,240l157,-240l180,0l-244,358l234,342l-175,0l-149,-227l-146,227l-180,0l234,-344z"/>
<glyph unicode="Y" horiz-adv-x="716" d="M281,0l154,0l0,279l269,421l-175,0l-170,-281l-167,281l-180,0l269,-424z"/>
<glyph unicode="&#xDD;" horiz-adv-x="716" d="M281,0l154,0l0,279l269,421l-175,0l-170,-281l-167,281l-180,0l269,-424M296,755l116,0l136,100l-131,57z"/>
<glyph unicode="&#x176;" horiz-adv-x="716" d="M281,0l154,0l0,279l269,421l-175,0l-170,-281l-167,281l-180,0l269,-424M158,755l120,0l79,56l79,-56l122,0l-128,147l-144,0z"/>
<glyph unicode="&#x178;" horiz-adv-x="716" d="M281,0l154,0l0,279l269,421l-175,0l-170,-281l-167,281l-180,0l269,-424M394,755l146,0l0,127l-146,0M176,755l146,0l0,127l-146,0z"/>
<glyph unicode="&#x1EF2;" horiz-adv-x="716" d="M281,0l154,0l0,279l269,421l-175,0l-170,-281l-167,281l-180,0l269,-424M299,912l-131,-57l136,-100l116,0z"/>
<glyph unicode="Z" horiz-adv-x="708" d="M63,0l583,0l0,135l-385,0l385,448l0,117l-571,0l0,-135l373,0l-385,-448z"/>
<glyph unicode="&#x179;" horiz-adv-x="708" d="M63,0l583,0l0,135l-385,0l385,448l0,117l-571,0l0,-135l373,0l-385,-448M298,755l116,0l136,100l-131,57z"/>
<glyph unicode="&#x17D;" horiz-adv-x="708" d="M63,0l583,0l0,135l-385,0l385,448l0,117l-571,0l0,-135l373,0l-385,-448M560,902l-120,0l-79,-56l-79,56l-122,0l128,-147l144,0z"/>
<glyph unicode="&#x17B;" horiz-adv-x="708" d="M63,0l583,0l0,135l-385,0l385,448l0,117l-571,0l0,-135l373,0l-385,-448M285,755l150,0l0,127l-150,0z"/>
<glyph unicode="a" horiz-adv-x="592" d="M220,-10C294,-10 345,17 382,58l0,-58l147,0l0,311C529,383 511,442 471,482C433,520 373,542 290,542C199,542 141,525 82,499l38,-116C169,401 210,412 268,412C344,412 383,377 383,314l0,-9C345,318 306,327 252,327C125,327 36,273 36,156l0,-2C36,48 119,-10 220,-10M266,95C217,95 183,119 183,160l0,2C183,210 223,236 288,236C325,236 359,228 385,216l0,-27C385,134 337,95 266,95z"/>
<glyph unicode="&#xE1;" horiz-adv-x="592" d="M220,-10C294,-10 345,17 382,58l0,-58l147,0l0,311C529,383 511,442 471,482C433,520 373,542 290,542C199,542 141,525 82,499l38,-116C169,401 210,412 268,412C344,412 383,377 383,314l0,-9C345,318 306,327 252,327C125,327 36,273 36,156l0,-2C36,48 119,-10 220,-10M266,95C217,95 183,119 183,160l0,2C183,210 223,236 288,236C325,236 359,228 385,216l0,-27C385,134 337,95 266,95M238,595l112,0l130,120l-131,57z"/>
<glyph unicode="&#x103;" horiz-adv-x="592" d="M220,-10C294,-10 345,17 382,58l0,-58l147,0l0,311C529,383 511,442 471,482C433,520 373,542 290,542C199,542 141,525 82,499l38,-116C169,401 210,412 268,412C344,412 383,377 383,314l0,-9C345,318 306,327 252,327C125,327 36,273 36,156l0,-2C36,48 119,-10 220,-10M266,95C217,95 183,119 183,160l0,2C183,210 223,236 288,236C325,236 359,228 385,216l0,-27C385,134 337,95 266,95M298,593C404,593 477,651 486,752l-102,0C372,716 348,692 298,692C248,692 224,716 212,752l-102,0C119,651 192,593 298,593z"/>
<glyph unicode="&#xE2;" horiz-adv-x="592" d="M220,-10C294,-10 345,17 382,58l0,-58l147,0l0,311C529,383 511,442 471,482C433,520 373,542 290,542C199,542 141,525 82,499l38,-116C169,401 210,412 268,412C344,412 383,377 383,314l0,-9C345,318 306,327 252,327C125,327 36,273 36,156l0,-2C36,48 119,-10 220,-10M266,95C217,95 183,119 183,160l0,2C183,210 223,236 288,236C325,236 359,228 385,216l0,-27C385,134 337,95 266,95M103,595l115,0l79,66l79,-66l117,0l-123,157l-144,0z"/>
<glyph unicode="&#xB4;" horiz-adv-x="500" d="M148,595l112,0l130,120l-131,57z"/>
<glyph unicode="&#xE4;" horiz-adv-x="592" d="M220,-10C294,-10 345,17 382,58l0,-58l147,0l0,311C529,383 511,442 471,482C433,520 373,542 290,542C199,542 141,525 82,499l38,-116C169,401 210,412 268,412C344,412 383,377 383,314l0,-9C345,318 306,327 252,327C125,327 36,273 36,156l0,-2C36,48 119,-10 220,-10M266,95C217,95 183,119 183,160l0,2C183,210 223,236 288,236C325,236 359,228 385,216l0,-27C385,134 337,95 266,95M329,595l146,0l0,135l-146,0M121,595l146,0l0,135l-146,0z"/>
<glyph unicode="&#xE6;" horiz-adv-x="951" d="M238,-10C323,-10 395,24 456,69C506,18 578,-12 660,-12C757,-12 829,26 879,88l-87,77C750,126 713,110 662,110C594,110 546,146 531,215l373,0C905,229 906,243 906,255C906,407 823,546 649,546C576,546 516,519 472,474C436,518 378,542 290,542C199,542 141,525 82,499l38,-116C169,401 210,412 268,412C344,412 383,377 383,314l0,-9C345,318 306,327 252,327C125,327 36,273 36,156l0,-2C36,50 122,-10 238,-10M529,310C541,379 582,424 645,424C709,424 749,378 758,310M266,97C220,97 183,121 183,160l0,2C183,210 223,236 288,236C324,236 358,228 384,217C387,192 394,169 403,148C358,113 311,97 266,97z"/>
<glyph unicode="&#x1FD;" horiz-adv-x="951" d="M238,-10C323,-10 395,24 456,69C506,18 578,-12 660,-12C757,-12 829,26 879,88l-87,77C750,126 713,110 662,110C594,110 546,146 531,215l373,0C905,229 906,243 906,255C906,407 823,546 649,546C576,546 516,519 472,474C436,518 378,542 290,542C199,542 141,525 82,499l38,-116C169,401 210,412 268,412C344,412 383,377 383,314l0,-9C345,318 306,327 252,327C125,327 36,273 36,156l0,-2C36,50 122,-10 238,-10M529,310C541,379 582,424 645,424C709,424 749,378 758,310M266,97C220,97 183,121 183,160l0,2C183,210 223,236 288,236C324,236 358,228 384,217C387,192 394,169 403,148C358,113 311,97 266,97M411,595l112,0l130,120l-131,57z"/>
<glyph unicode="&#xE0;" horiz-adv-x="592" d="M220,-10C294,-10 345,17 382,58l0,-58l147,0l0,311C529,383 511,442 471,482C433,520 373,542 290,542C199,542 141,525 82,499l38,-116C169,401 210,412 268,412C344,412 383,377 383,314l0,-9C345,318 306,327 252,327C125,327 36,273 36,156l0,-2C36,48 119,-10 220,-10M266,95C217,95 183,119 183,160l0,2C183,210 223,236 288,236C325,236 359,228 385,216l0,-27C385,134 337,95 266,95M246,595l112,0l-111,177l-131,-57z"/>
<glyph unicode="&#x101;" horiz-adv-x="592" d="M220,-10C294,-10 345,17 382,58l0,-58l147,0l0,311C529,383 511,442 471,482C433,520 373,542 290,542C199,542 141,525 82,499l38,-116C169,401 210,412 268,412C344,412 383,377 383,314l0,-9C345,318 306,327 252,327C125,327 36,273 36,156l0,-2C36,48 119,-10 220,-10M266,95C217,95 183,119 183,160l0,2C183,210 223,236 288,236C325,236 359,228 385,216l0,-27C385,134 337,95 266,95M118,600l360,0l0,105l-360,0z"/>
<glyph unicode="&amp;" horiz-adv-x="696" d="M555,-14l113,79l-103,103C600,215 630,267 657,316l-113,62C522,335 499,294 476,258l-93,93C470,385 530,440 530,534l0,2C530,634 452,712 333,712C198,712 121,624 121,528l0,-2C121,478 136,434 170,386C82,346 34,283 34,194l0,-2C34,68 135,-10 269,-10C350,-10 417,21 474,68M303,432C274,465 262,488 262,519l0,2C262,563 289,592 330,592C369,592 396,567 396,527l0,-2C396,481 364,455 303,432M287,116C230,116 189,149 189,198l0,2C189,234 208,268 254,292l134,-136C356,131 322,116 287,116z"/>
<glyph unicode="&#x105;" horiz-adv-x="592" d="M532,-164l0,67C488,-99 462,-85 462,-56C462,-40 469,-21 487,0l42,0l0,311C529,383 511,442 471,482C433,520 373,542 290,542C199,542 141,525 82,499l38,-116C169,401 210,412 268,412C344,412 383,377 383,314l0,-9C345,318 306,327 252,327C125,327 36,273 36,156l0,-2C36,48 119,-10 220,-10C294,-10 345,17 382,58l0,-58l4,0C366,-26 353,-51 353,-80C353,-137 417,-180 532,-164M266,95C217,95 183,119 183,160l0,2C183,210 223,236 288,236C325,236 359,228 385,216l0,-27C385,134 337,95 266,95z"/>
<glyph unicode="&#xE5;" horiz-adv-x="592" d="M220,-10C294,-10 345,17 382,58l0,-58l147,0l0,311C529,383 511,442 471,482C433,520 373,542 290,542C199,542 141,525 82,499l38,-116C169,401 210,412 268,412C344,412 383,377 383,314l0,-9C345,318 306,327 252,327C125,327 36,273 36,156l0,-2C36,48 119,-10 220,-10M266,95C217,95 183,119 183,160l0,2C183,210 223,236 288,236C325,236 359,228 385,216l0,-27C385,134 337,95 266,95M177,710C177,645 231,593 298,593C365,593 419,645 419,710C419,775 365,827 298,827C231,827 177,775 177,710M232,710C232,746 262,776 298,776C334,776 364,746 364,710C364,674 334,644 298,644C262,644 232,674 232,710z"/>
<glyph unicode="&#x1FB;" horiz-adv-x="592" d="M237,861l112,0l136,90l-129,57M220,-10C294,-10 345,17 382,58l0,-58l147,0l0,311C529,383 511,442 471,482C433,520 373,542 290,542C199,542 141,525 82,499l38,-116C169,401 210,412 268,412C344,412 383,377 383,314l0,-9C345,318 306,327 252,327C125,327 36,273 36,156l0,-2C36,48 119,-10 220,-10M266,95C217,95 183,119 183,160l0,2C183,210 223,236 288,236C325,236 359,228 385,216l0,-27C385,134 337,95 266,95M177,710C177,645 231,593 298,593C365,593 419,645 419,710C419,775 365,827 298,827C231,827 177,775 177,710M232,710C232,746 262,776 298,776C334,776 364,746 364,710C364,674 334,644 298,644C262,644 232,674 232,710z"/>
<glyph unicode="^" horiz-adv-x="500" d="M50,493l108,0l91,117l91,-117l110,0l-148,207l-104,0z"/>
<glyph unicode="~" horiz-adv-x="510" d="M130,224C144,256 156,273 187,273C223,273 275,234 337,234C407,234 438,288 461,372l-81,25C366,365 354,348 323,348C287,348 235,387 173,387C103,387 72,333 49,249z"/>
<glyph unicode="*" horiz-adv-x="430" d="M174,372l82,0l-16,120l97,-74l42,72l-112,47l112,47l-42,72l-97,-74l16,120l-82,0l16,-120l-97,74l-42,-72l112,-47l-112,-47l42,-72l97,74z"/>
<glyph unicode="@" horiz-adv-x="980" d="M499,-162C603,-162 687,-134 764,-87l-20,32C669,-99 598,-122 499,-122C263,-122 95,54 95,274C95,493 265,672 491,672C716,672 885,501 885,316C885,183 829,112 758,112C712,112 685,139 685,175C685,183 686,196 688,206l47,269l-118,19l-11,-53C578,479 537,509 468,509C351,509 244,399 244,258C244,139 325,65 427,65C492,65 541,94 575,125C600,96 647,65 728,65C838,65 927,149 927,316C927,521 736,712 491,712C246,712 53,513 53,274C53,35 243,-162 499,-162M462,168C407,168 368,203 368,265C368,345 423,406 488,406C542,406 581,369 581,312C581,230 525,168 462,168z"/>
<glyph unicode="&#xE3;" horiz-adv-x="592" d="M220,-10C294,-10 345,17 382,58l0,-58l147,0l0,311C529,383 511,442 471,482C433,520 373,542 290,542C199,542 141,525 82,499l38,-116C169,401 210,412 268,412C344,412 383,377 383,314l0,-9C345,318 306,327 252,327C125,327 36,273 36,156l0,-2C36,48 119,-10 220,-10M266,95C217,95 183,119 183,160l0,2C183,210 223,236 288,236C325,236 359,228 385,216l0,-27C385,134 337,95 266,95M178,585C192,617 204,634 235,634C271,634 323,595 385,595C455,595 486,649 509,733l-81,25C414,726 402,709 371,709C335,709 283,748 221,748C151,748 120,694 97,610z"/>
<glyph unicode="b" horiz-adv-x="675" d="M387,-10C514,-10 631,88 631,267l0,2C631,448 512,546 387,546C308,546 257,509 220,459l0,271l-152,0l0,-730l152,0l0,70C256,27 306,-10 387,-10M348,119C277,119 218,178 218,267l0,2C218,358 277,417 348,417C419,417 479,358 479,269l0,-2C479,177 419,119 348,119z"/>
<glyph unicode="\" horiz-adv-x="530" d="M429,-128l129,0l-443,926l-129,0z"/>
<glyph unicode="|" horiz-adv-x="350" d="M115,-128l120,0l0,926l-120,0z"/>
<glyph unicode="{" horiz-adv-x="490" d="M416,-141l27,101C337,-10 321,18 321,79C321,99 324,132 324,153C324,226 287,265 220,287C287,309 324,348 324,421C324,442 321,475 321,495C321,556 337,584 443,614l-27,101C233,683 182,619 182,517C182,502 185,465 185,448C185,370 153,345 75,345l-26,0l0,-116l26,0C153,229 185,204 185,126C185,109 182,72 182,57C182,-45 233,-109 416,-141z"/>
<glyph unicode="}" horiz-adv-x="490" d="M74,-141C257,-109 308,-45 308,57C308,72 305,109 305,126C305,204 337,229 415,229l26,0l0,116l-26,0C337,345 305,370 305,448C305,465 308,502 308,517C308,619 257,683 74,715l-27,-101C153,584 169,556 169,495C169,475 166,442 166,421C166,348 203,309 270,287C203,265 166,226 166,153C166,132 169,99 169,79C169,18 153,-10 47,-40z"/>
<glyph unicode="[" horiz-adv-x="465" d="M83,-130l323,0l0,119l-177,0l0,592l177,0l0,119l-323,0z"/>
<glyph unicode="]" horiz-adv-x="465" d="M59,-130l323,0l0,830l-323,0l0,-119l177,0l0,-592l-177,0z"/>
<glyph unicode="&#x2D8;" horiz-adv-x="500" d="M250,593C356,593 429,651 438,752l-102,0C324,716 300,692 250,692C200,692 176,716 164,752l-102,0C71,651 144,593 250,593z"/>
<glyph unicode="&#x2022;" horiz-adv-x="500" d="M250,203C332,203 399,269 399,351l0,2C399,435 332,501 250,501C168,501 101,435 101,353l0,-2C101,269 168,203 250,203z"/>
<glyph unicode="c" horiz-adv-x="571" d="M321,-12C428,-12 488,29 540,86l-89,90C414,141 379,119 328,119C245,119 192,185 192,267l0,2C192,348 246,415 322,415C376,415 410,392 444,356l93,100C487,512 424,546 323,546C159,546 42,420 42,267l0,-2C42,112 160,-12 321,-12z"/>
<glyph unicode="&#x107;" horiz-adv-x="571" d="M321,-12C428,-12 488,29 540,86l-89,90C414,141 379,119 328,119C245,119 192,185 192,267l0,2C192,348 246,415 322,415C376,415 410,392 444,356l93,100C487,512 424,546 323,546C159,546 42,420 42,267l0,-2C42,112 160,-12 321,-12M257,595l112,0l130,120l-131,57z"/>
<glyph unicode="&#x2C7;" horiz-adv-x="500" d="M445,752l-115,0l-79,-66l-79,66l-117,0l123,-157l144,0z"/>
<glyph unicode="&#x10D;" horiz-adv-x="571" d="M321,-12C428,-12 488,29 540,86l-89,90C414,141 379,119 328,119C245,119 192,185 192,267l0,2C192,348 246,415 322,415C376,415 410,392 444,356l93,100C487,512 424,546 323,546C159,546 42,420 42,267l0,-2C42,112 160,-12 321,-12M512,752l-115,0l-79,-66l-79,66l-117,0l123,-157l144,0z"/>
<glyph unicode="&#xE7;" horiz-adv-x="571" d="M281,-173l65,162C438,-5 492,33 540,86l-89,90C414,141 379,119 328,119C245,119 192,185 192,267l0,2C192,348 246,415 322,415C376,415 410,392 444,356l93,100C487,512 424,546 323,546C159,546 42,420 42,267l0,-2C42,140 120,34 236,0l-82,-120z"/>
<glyph unicode="&#x10B;" horiz-adv-x="571" d="M321,-12C428,-12 488,29 540,86l-89,90C414,141 379,119 328,119C245,119 192,185 192,267l0,2C192,348 246,415 322,415C376,415 410,392 444,356l93,100C487,512 424,546 323,546C159,546 42,420 42,267l0,-2C42,112 160,-12 321,-12M242,595l150,0l0,135l-150,0z"/>
<glyph unicode="&#xB8;" horiz-adv-x="500" d="M245,-173l78,193l-109,0l-96,-140z"/>
<glyph unicode="&#xA2;" horiz-adv-x="581" d="M312,-6l16,82C425,78 490,119 542,177l-86,87C424,234 390,214 349,208l54,276C420,475 436,463 452,447l90,97C511,580 474,604 433,618l18,88l-104,0l-14,-72l-6,0C165,634 47,509 47,355l0,-2C47,232 122,131 227,92l-19,-98M194,355l0,2C194,433 243,497 312,502l-54,-277C217,250 194,298 194,355z"/>
<glyph unicode="&#x2C6;" horiz-adv-x="500" d="M55,595l115,0l79,66l79,-66l117,0l-123,157l-144,0z"/>
<glyph unicode=":" horiz-adv-x="296" d="M67,376l162,0l0,160l-162,0M67,0l162,0l0,160l-162,0z"/>
<glyph unicode="," horiz-adv-x="286" d="M39,-162C158,-160 224,-107 224,25l0,135l-162,0l0,-160l62,0C129,-57 95,-92 26,-99z"/>
<glyph unicode="&#x326;" horiz-adv-x="500" d="M177,-292C269,-290 319,-252 319,-156l0,97l-138,0l0,-115l64,0C248,-216 222,-241 169,-246z"/>
<glyph unicode="&#xA9;" horiz-adv-x="830" d="M414,-12C617,-12 777,153 777,350l0,2C777,549 619,712 416,712C213,712 53,547 53,350l0,-2C53,151 211,-12 414,-12M414,28C232,28 95,171 95,348l0,2C95,527 233,672 416,672C598,672 735,529 735,352l0,-2C735,173 597,28 414,28M419,156C493,156 537,182 577,225l-56,56C491,254 465,236 422,236C357,236 312,290 312,354l0,2C312,421 358,474 422,474C459,474 490,457 519,431l55,64C538,530 495,554 422,554C304,554 222,464 222,355l0,-2C222,243 306,156 419,156z"/>
<glyph unicode="d" horiz-adv-x="675" d="M288,-10C367,-10 418,27 455,77l0,-77l152,0l0,730l-152,0l0,-264C419,509 369,546 288,546C161,546 44,448 44,269l0,-2C44,88 163,-10 288,-10M327,119C256,119 196,178 196,267l0,2C196,359 256,417 327,417C398,417 457,358 457,269l0,-2C457,178 398,119 327,119z"/>
<glyph unicode="&#x2020;" horiz-adv-x="410" d="M163,238l84,0l-10,270l120,-10l0,83l-119,-10l13,129l-92,0l13,-129l-119,10l0,-83l120,10z"/>
<glyph unicode="&#x2021;" horiz-adv-x="430" d="M169,0l92,0l-13,129l119,-10l0,83l-119,-10l9,158l-9,158l119,-10l0,83l-119,-10l13,129l-92,0l13,-129l-119,10l0,-83l119,10l-9,-158l9,-158l-119,10l0,-83l119,10z"/>
<glyph unicode="&#x10F;" horiz-adv-x="675" d="M288,-10C367,-10 418,27 455,77l0,-77l152,0l0,730l-152,0l0,-264C419,509 369,546 288,546C161,546 44,448 44,269l0,-2C44,88 163,-10 288,-10M327,119C256,119 196,178 196,267l0,2C196,359 256,417 327,417C398,417 457,358 457,269l0,-2C457,178 398,119 327,119M657,522l60,0l59,205l0,3l-109,0z"/>
<glyph unicode="&#x111;" horiz-adv-x="675" d="M300,593l155,0l0,-127C419,509 369,546 288,546C161,546 44,448 44,269l0,-2C44,88 163,-10 288,-10C367,-10 418,27 455,77l0,-77l152,0l0,593l68,0l0,85l-68,0l0,52l-152,0l0,-52l-155,0M327,119C256,119 196,178 196,267l0,2C196,359 256,417 327,417C398,417 457,358 457,269l0,-2C457,178 398,119 327,119z"/>
<glyph unicode="&#xB0;" horiz-adv-x="480" d="M240,368C331,368 413,445 413,536l0,2C413,629 331,706 240,706C149,706 67,629 67,538l0,-2C67,445 149,368 240,368M240,443C187,443 148,486 148,536l0,2C148,588 187,631 240,631C293,631 332,588 332,538l0,-2C332,486 293,443 240,443z"/>
<glyph unicode="&#xA8;" horiz-adv-x="500" d="M281,595l146,0l0,135l-146,0M73,595l146,0l0,135l-146,0z"/>
<glyph unicode="&#xF7;" horiz-adv-x="640" d="M242,495l156,0l0,144l-156,0M572,288l0,128l-504,0l0,-128M242,65l156,0l0,144l-156,0z"/>
<glyph unicode="$" horiz-adv-x="646" d="M280,-98l104,0l0,99C510,14 596,86 596,198l0,2C596,312 531,373 379,414l0,152C420,555 463,534 503,507l67,117C515,662 455,688 384,697l0,61l-104,0l0,-58C154,687 70,614 70,504l0,-2C70,383 141,329 285,290l0,-159C226,143 176,171 122,212l-78,-114C110,48 194,14 280,3M450,192l0,-2C450,154 426,133 379,126l0,140C433,246 450,225 450,192M216,511l0,2C216,545 236,569 285,575l0,-136C230,459 216,479 216,511z"/>
<glyph unicode="&#x2D9;" horiz-adv-x="500" d="M175,595l150,0l0,135l-150,0z"/>
<glyph unicode="&#x131;" horiz-adv-x="302" d="M75,0l152,0l0,536l-152,0z"/>
<glyph unicode="e" horiz-adv-x="613" d="M322,-12C419,-12 491,26 541,88l-87,77C412,126 375,110 324,110C256,110 208,146 193,215l373,0C567,229 568,243 568,255C568,407 486,546 307,546C151,546 42,420 42,267l0,-2C42,101 161,-12 322,-12M191,310C203,379 244,424 307,424C371,424 411,378 420,310z"/>
<glyph unicode="&#xE9;" horiz-adv-x="613" d="M322,-12C419,-12 491,26 541,88l-87,77C412,126 375,110 324,110C256,110 208,146 193,215l373,0C567,229 568,243 568,255C568,407 486,546 307,546C151,546 42,420 42,267l0,-2C42,101 161,-12 322,-12M191,310C203,379 244,424 307,424C371,424 411,378 420,310M245,595l112,0l130,120l-131,57z"/>
<glyph unicode="&#x115;" horiz-adv-x="613" d="M322,-12C419,-12 491,26 541,88l-87,77C412,126 375,110 324,110C256,110 208,146 193,215l373,0C567,229 568,243 568,255C568,407 486,546 307,546C151,546 42,420 42,267l0,-2C42,101 161,-12 322,-12M191,310C203,379 244,424 307,424C371,424 411,378 420,310M305,593C411,593 484,651 493,752l-102,0C379,716 355,692 305,692C255,692 231,716 219,752l-102,0C126,651 199,593 305,593z"/>
<glyph unicode="&#x11B;" horiz-adv-x="613" d="M322,-12C419,-12 491,26 541,88l-87,77C412,126 375,110 324,110C256,110 208,146 193,215l373,0C567,229 568,243 568,255C568,407 486,546 307,546C151,546 42,420 42,267l0,-2C42,101 161,-12 322,-12M191,310C203,379 244,424 307,424C371,424 411,378 420,310M500,752l-115,0l-79,-66l-79,66l-117,0l123,-157l144,0z"/>
<glyph unicode="&#xEA;" horiz-adv-x="613" d="M322,-12C419,-12 491,26 541,88l-87,77C412,126 375,110 324,110C256,110 208,146 193,215l373,0C567,229 568,243 568,255C568,407 486,546 307,546C151,546 42,420 42,267l0,-2C42,101 161,-12 322,-12M191,310C203,379 244,424 307,424C371,424 411,378 420,310M110,595l115,0l79,66l79,-66l117,0l-123,157l-144,0z"/>
<glyph unicode="&#xEB;" horiz-adv-x="613" d="M322,-12C419,-12 491,26 541,88l-87,77C412,126 375,110 324,110C256,110 208,146 193,215l373,0C567,229 568,243 568,255C568,407 486,546 307,546C151,546 42,420 42,267l0,-2C42,101 161,-12 322,-12M191,310C203,379 244,424 307,424C371,424 411,378 420,310M336,595l146,0l0,135l-146,0M128,595l146,0l0,135l-146,0z"/>
<glyph unicode="&#x117;" horiz-adv-x="613" d="M322,-12C419,-12 491,26 541,88l-87,77C412,126 375,110 324,110C256,110 208,146 193,215l373,0C567,229 568,243 568,255C568,407 486,546 307,546C151,546 42,420 42,267l0,-2C42,101 161,-12 322,-12M191,310C203,379 244,424 307,424C371,424 411,378 420,310M230,595l150,0l0,135l-150,0z"/>
<glyph unicode="&#xE8;" horiz-adv-x="613" d="M322,-12C419,-12 491,26 541,88l-87,77C412,126 375,110 324,110C256,110 208,146 193,215l373,0C567,229 568,243 568,255C568,407 486,546 307,546C151,546 42,420 42,267l0,-2C42,101 161,-12 322,-12M191,310C203,379 244,424 307,424C371,424 411,378 420,310M253,595l112,0l-111,177l-131,-57z"/>
<glyph unicode="8" horiz-adv-x="630" d="M315,-10C470,-10 585,66 585,196l0,2C585,281 543,326 472,363C526,396 561,441 561,516l0,2C561,626 463,710 315,710C167,710 69,625 69,518l0,-2C69,441 104,396 158,363C84,329 45,279 45,194l0,-2C45,70 160,-10 315,-10M315,414C254,414 215,451 215,500l0,2C215,545 252,583 315,583C378,583 415,544 415,501l0,-2C415,450 376,414 315,414M315,117C239,117 194,156 194,204l0,2C194,260 245,292 315,292C385,292 436,260 436,206l0,-2C436,155 391,117 315,117z"/>
<glyph unicode="&#x2026;" horiz-adv-x="840" d="M620,0l158,0l0,156l-158,0M341,0l158,0l0,156l-158,0M62,0l158,0l0,156l-158,0z"/>
<glyph unicode="&#x113;" horiz-adv-x="613" d="M322,-12C419,-12 491,26 541,88l-87,77C412,126 375,110 324,110C256,110 208,146 193,215l373,0C567,229 568,243 568,255C568,407 486,546 307,546C151,546 42,420 42,267l0,-2C42,101 161,-12 322,-12M191,310C203,379 244,424 307,424C371,424 411,378 420,310M125,600l360,0l0,105l-360,0z"/>
<glyph unicode="&#x2014;" horiz-adv-x="898" d="M50,239l798,0l0,142l-798,0z"/>
<glyph unicode="&#x2003;" horiz-adv-x="1000"/>
<glyph unicode="&#x2013;" horiz-adv-x="528" d="M50,239l428,0l0,142l-428,0z"/>
<glyph unicode="&#x2002;" horiz-adv-x="500"/>
<glyph unicode="&#x119;" horiz-adv-x="613" d="M191,310C203,379 244,424 307,424C371,424 411,378 420,310M480,26C503,47 519,63 541,88l-87,77C412,126 375,110 324,110C256,110 208,146 193,215l373,0C567,229 568,243 568,255C568,407 486,546 307,546C151,546 42,420 42,267l0,-2C42,101 161,-12 322,-12C332,-12 348,-11 357,-10C337,-36 325,-61 325,-85C325,-137 389,-180 504,-164l0,67C460,-99 434,-85 434,-51C434,-30 449,-3 480,26z"/>
<glyph unicode="=" horiz-adv-x="640" d="M73,413l494,0l0,138l-494,0M73,153l494,0l0,138l-494,0z"/>
<glyph unicode="&#xF0;" horiz-adv-x="665" d="M538,653l-25,79l-120,-30l-34,28l-201,0C186,710 216,688 245,665l-76,-19l26,-80l124,31C353,564 382,530 403,499C363,522 330,534 280,534C147,534 42,420 42,275l0,-2C42,111 165,-12 331,-12C514,-12 621,128 621,291l0,2C621,426 554,540 464,634M333,119C249,119 192,186 192,265l0,2C192,346 244,411 331,411C415,411 472,344 472,265l0,-2C472,184 420,119 333,119z"/>
<glyph unicode="!" horiz-adv-x="324" d="M120,238l84,0l47,442l0,20l-178,0l0,-20M81,0l162,0l0,160l-162,0z"/>
<glyph unicode="&#xA1;" horiz-adv-x="324" d="M81,540l162,0l0,160l-162,0M73,0l178,0l0,20l-47,442l-84,0l-47,-442z"/>
<glyph unicode="f" horiz-adv-x="382" d="M94,0l152,0l0,406l121,0l0,124l-123,0l0,21C244,591 264,609 299,609C325,609 346,604 368,596l0,126C340,731 308,737 260,737C206,737 165,723 137,695C109,667 94,624 94,565l0,-34l-63,0l0,-125l63,0z"/>
<glyph unicode="&#xFB00;" horiz-adv-x="764" d="M476,0l152,0l0,406l121,0l0,124l-123,0l0,21C626,591 646,609 681,609C707,609 728,604 750,596l0,126C722,731 690,737 642,737C588,737 547,723 519,695C491,667 476,624 476,565l0,-34l-63,0l0,-125l63,0M94,0l152,0l0,406l121,0l0,124l-123,0l0,21C244,591 264,609 299,609C325,609 346,604 368,596l0,126C340,731 308,737 260,737C206,737 165,723 137,695C109,667 94,624 94,565l0,-34l-63,0l0,-125l63,0z"/>
<glyph unicode="&#xFB03;" horiz-adv-x="1066" d="M476,0l152,0l0,406l121,0l0,124l-123,0l0,21C626,591 646,609 681,609C707,609 728,604 750,596l0,126C722,731 690,737 642,737C588,737 547,723 519,695C491,667 476,624 476,565l0,-34l-63,0l0,-125l63,0M94,0l152,0l0,406l121,0l0,124l-123,0l0,21C244,591 264,609 299,609C325,609 346,604 368,596l0,126C340,731 308,737 260,737C206,737 165,723 137,695C109,667 94,624 94,565l0,-34l-63,0l0,-125l63,0M839,0l152,0l0,536l-152,0M835,595l160,0l0,135l-160,0z"/>
<glyph unicode="&#xFB04;" horiz-adv-x="1066" d="M476,0l152,0l0,406l121,0l0,124l-123,0l0,21C626,591 646,609 681,609C707,609 728,604 750,596l0,126C722,731 690,737 642,737C588,737 547,723 519,695C491,667 476,624 476,565l0,-34l-63,0l0,-125l63,0M94,0l152,0l0,406l121,0l0,124l-123,0l0,21C244,591 264,609 299,609C325,609 346,604 368,596l0,126C340,731 308,737 260,737C206,737 165,723 137,695C109,667 94,624 94,565l0,-34l-63,0l0,-125l63,0M839,0l152,0l0,730l-152,0z"/>
<glyph unicode="&#xFB01;" horiz-adv-x="684" d="M94,0l152,0l0,406l121,0l0,124l-123,0l0,21C244,591 264,609 299,609C325,609 346,604 368,596l0,126C340,731 308,737 260,737C206,737 165,723 137,695C109,667 94,624 94,565l0,-34l-63,0l0,-125l63,0M457,0l152,0l0,536l-152,0M453,595l160,0l0,135l-160,0z"/>
<glyph unicode="5" horiz-adv-x="630" d="M305,-12C466,-12 571,82 571,230l0,2C571,390 462,456 326,456C287,456 262,451 234,444l8,121l298,0l0,135l-430,0l-20,-345l89,-59C212,310 252,322 296,322C369,322 420,287 420,227l0,-2C420,163 375,128 303,128C241,128 189,156 136,204l-93,-111C111,28 193,-12 305,-12z"/>
<glyph unicode="&#xFB02;" horiz-adv-x="684" d="M94,0l152,0l0,406l121,0l0,124l-123,0l0,21C244,591 264,609 299,609C325,609 346,604 368,596l0,126C340,731 308,737 260,737C206,737 165,723 137,695C109,667 94,624 94,565l0,-34l-63,0l0,-125l63,0M457,0l152,0l0,730l-152,0z"/>
<glyph unicode="&#x192;" horiz-adv-x="536" d="M100,-5C215,-5 274,39 295,157l33,187l137,0l0,125l-115,0l7,40C365,556 388,577 432,577C453,577 476,573 500,567l0,126C475,701 441,705 401,705C281,705 231,645 212,543l-14,-74l-89,0l0,-125l67,0l-28,-163C140,137 120,120 78,120C67,120 54,121 41,123l0,-123C59,-4 75,-5 100,-5z"/>
<glyph unicode="4" horiz-adv-x="689" d="M398,0l147,0l0,151l94,0l0,125l-94,0l0,429l-130,0l-384,-445l25,-109l342,0M212,276l186,218l0,-218z"/>
<glyph unicode="&#x2005;" horiz-adv-x="250"/>
<glyph unicode="&#x2044;" horiz-adv-x="450" d="M-54,0l83,0l221,333l254,367l-83,0l-221,-333z"/>
<glyph unicode="g" horiz-adv-x="675" d="M308,-162C412,-162 489,-140 539,-90C584,-45 607,25 607,121l0,415l-152,0l0,-70C414,511 365,546 282,546C159,546 44,456 44,296l0,-2C44,135 157,44 282,44C363,44 412,77 457,131l0,-26C457,9 408,-41 304,-41C233,-41 178,-23 123,8l-52,-114C139,-142 221,-162 308,-162M326,170C252,170 196,220 196,294l0,2C196,369 252,420 326,420C400,420 457,369 457,296l0,-2C457,221 400,170 326,170z"/>
<glyph unicode="&#x11F;" horiz-adv-x="675" d="M308,-162C412,-162 489,-140 539,-90C584,-45 607,25 607,121l0,415l-152,0l0,-70C414,511 365,546 282,546C159,546 44,456 44,296l0,-2C44,135 157,44 282,44C363,44 412,77 457,131l0,-26C457,9 408,-41 304,-41C233,-41 178,-23 123,8l-52,-114C139,-142 221,-162 308,-162M326,170C252,170 196,220 196,294l0,2C196,369 252,420 326,420C400,420 457,369 457,296l0,-2C457,221 400,170 326,170M345,593C451,593 524,651 533,752l-102,0C419,716 395,692 345,692C295,692 271,716 259,752l-102,0C166,651 239,593 345,593z"/>
<glyph unicode="&#x123;" horiz-adv-x="675" d="M308,-162C412,-162 489,-140 539,-90C584,-45 607,25 607,121l0,415l-152,0l0,-70C414,511 365,546 282,546C159,546 44,456 44,296l0,-2C44,135 157,44 282,44C363,44 412,77 457,131l0,-26C457,9 408,-41 304,-41C233,-41 178,-23 123,8l-52,-114C139,-142 221,-162 308,-162M326,170C252,170 196,220 196,294l0,2C196,369 252,420 326,420C400,420 457,369 457,296l0,-2C457,221 400,170 326,170M415,828C323,826 273,788 273,692l0,-97l138,0l0,115l-64,0C344,752 370,777 423,782z"/>
<glyph unicode="&#x121;" horiz-adv-x="675" d="M308,-162C412,-162 489,-140 539,-90C584,-45 607,25 607,121l0,415l-152,0l0,-70C414,511 365,546 282,546C159,546 44,456 44,296l0,-2C44,135 157,44 282,44C363,44 412,77 457,131l0,-26C457,9 408,-41 304,-41C233,-41 178,-23 123,8l-52,-114C139,-142 221,-162 308,-162M326,170C252,170 196,220 196,294l0,2C196,369 252,420 326,420C400,420 457,369 457,296l0,-2C457,221 400,170 326,170M270,595l150,0l0,135l-150,0z"/>
<glyph unicode="&#xDF;" horiz-adv-x="620" d="M299,-2C468,-9 577,66 577,199l0,2C577,297 513,349 446,378C496,412 537,455 537,541l0,2C537,652 457,737 314,737C164,737 68,651 68,503l0,-503l151,0l0,509C219,570 255,609 307,609C356,609 387,579 387,529l0,-2C387,472 348,434 299,403l0,-100C372,293 427,260 427,206l0,-2C427,147 381,116 299,112z"/>
<glyph unicode="`" horiz-adv-x="500" d="M240,595l112,0l-111,177l-131,-57z"/>
<glyph unicode="&gt;" horiz-adv-x="640" d="M88,71l484,212l0,138l-484,212l0,-143l338,-139l-338,-139z"/>
<glyph unicode="&#xAB;" horiz-adv-x="645" d="M481,40l116,58l-130,171l130,171l-116,56l-168,-224l0,-8M209,40l116,58l-130,171l130,171l-116,56l-168,-224l0,-8z"/>
<glyph unicode="&#xBB;" horiz-adv-x="645" d="M436,40l168,224l0,8l-168,224l-116,-58l130,-171l-130,-171M164,40l168,224l0,8l-168,224l-116,-58l130,-171l-130,-171z"/>
<glyph unicode="&#x2039;" horiz-adv-x="373" d="M209,40l116,58l-130,171l130,171l-116,56l-168,-224l0,-8z"/>
<glyph unicode="&#x203A;" horiz-adv-x="373" d="M164,40l168,224l0,8l-168,224l-116,-58l130,-171l-130,-171z"/>
<glyph unicode="h" horiz-adv-x="623" d="M68,0l152,0l0,299C220,371 257,408 315,408C373,408 407,371 407,299l0,-299l152,0l0,347C559,470 492,546 377,546C300,546 255,505 220,460l0,270l-152,0z"/>
<glyph unicode="&#x200A;" horiz-adv-x="75"/>
<glyph unicode="&#x127;" horiz-adv-x="623" d="M375,593l0,85l-155,0l0,52l-152,0l0,-52l-68,0l0,-85l68,0l0,-593l152,0l0,299C220,371 257,408 315,408C373,408 407,371 407,299l0,-299l152,0l0,347C559,470 492,546 377,546C300,546 255,505 220,460l0,133z"/>
<glyph unicode="&#x2DD;" horiz-adv-x="500" d="M228,595l107,0l132,120l-128,57M43,595l107,0l130,120l-128,57z"/>
<glyph unicode="-" horiz-adv-x="408" d="M50,237l308,0l0,146l-308,0z"/>
<glyph unicode="i" horiz-adv-x="302" d="M71,595l160,0l0,135l-160,0M75,0l152,0l0,536l-152,0z"/>
<glyph unicode="&#xED;" horiz-adv-x="302" d="M75,0l152,0l0,536l-152,0M91,595l112,0l130,120l-131,57z"/>
<glyph unicode="&#x12D;" horiz-adv-x="302" d="M75,0l152,0l0,536l-152,0M151,593C257,593 330,651 339,752l-102,0C225,716 201,692 151,692C101,692 77,716 65,752l-102,0C-28,651 45,593 151,593z"/>
<glyph unicode="&#xEE;" horiz-adv-x="302" d="M75,0l152,0l0,536l-152,0M-44,595l115,0l79,66l79,-66l117,0l-123,157l-144,0z"/>
<glyph unicode="&#xEF;" horiz-adv-x="302" d="M75,0l152,0l0,536l-152,0M182,595l146,0l0,135l-146,0M-26,595l146,0l0,135l-146,0z"/>
<glyph unicode="&#xEC;" horiz-adv-x="302" d="M75,0l152,0l0,536l-152,0M99,595l112,0l-111,177l-131,-57z"/>
<glyph unicode="&#x12B;" horiz-adv-x="302" d="M75,0l152,0l0,536l-152,0M-29,600l360,0l0,105l-360,0z"/>
<glyph unicode="&#x12F;" horiz-adv-x="302" d="M75,0l23,0C78,-26 65,-51 65,-80C65,-137 129,-180 244,-164l0,67C200,-99 174,-85 174,-56C174,-40 181,-21 199,0l28,0l0,536l-152,0M71,595l160,0l0,135l-160,0z"/>
<glyph unicode="j" horiz-adv-x="302" d="M71,595l160,0l0,135l-160,0M55,-163C167,-163 227,-109 227,9l0,527l-152,0l0,-515C75,-24 53,-41 21,-41C10,-41 1,-40 -11,-38l0,-119C10,-161 27,-163 55,-163z"/>
<glyph unicode="k" horiz-adv-x="592" d="M68,0l152,0l0,163l53,56l140,-219l174,0l-211,325l204,211l-182,0l-178,-195l0,389l-152,0z"/>
<glyph unicode="&#x137;" horiz-adv-x="592" d="M68,0l152,0l0,163l53,56l140,-219l174,0l-211,325l204,211l-182,0l-178,-195l0,389l-152,0M234,-292C326,-290 376,-252 376,-156l0,97l-138,0l0,-115l64,0C305,-216 279,-241 226,-246z"/>
<glyph unicode="l" horiz-adv-x="302" d="M75,0l152,0l0,730l-152,0z"/>
<glyph unicode="&#x13A;" horiz-adv-x="302" d="M75,0l152,0l0,730l-152,0M93,770l116,0l136,100l-131,57z"/>
<glyph unicode="&#x13E;" horiz-adv-x="302" d="M75,0l152,0l0,730l-152,0M277,522l60,0l59,205l0,3l-109,0z"/>
<glyph unicode="&#x13C;" horiz-adv-x="302" d="M75,0l152,0l0,730l-152,0M78,-292C170,-290 220,-252 220,-156l0,97l-138,0l0,-115l64,0C149,-216 123,-241 70,-246z"/>
<glyph unicode="&#x140;" horiz-adv-x="392" d="M287,316l120,0l0,125l-120,0M75,0l152,0l0,730l-152,0z"/>
<glyph unicode="&lt;" horiz-adv-x="640" d="M552,71l0,143l-338,139l338,139l0,141l-484,-212l0,-138z"/>
<glyph unicode="&#x142;" horiz-adv-x="362" d="M332,377l0,143l-76,-38l0,248l-150,0l0,-323l-76,-37l0,-143l76,37l0,-264l150,0l0,339z"/>
<glyph unicode="m" horiz-adv-x="950" d="M68,0l152,0l0,299C220,371 255,408 312,408C369,408 401,371 401,299l0,-299l152,0l0,299C553,371 588,408 645,408C702,408 734,371 734,299l0,-299l152,0l0,349C886,478 818,546 705,546C632,546 576,516 529,461C501,515 448,546 378,546C301,546 255,505 220,460l0,76l-152,0z"/>
<glyph unicode="&#xAF;" horiz-adv-x="500" d="M70,600l360,0l0,105l-360,0z"/>
<glyph unicode="&#x2212;" horiz-adv-x="640" d="M572,282l0,140l-504,0l0,-140z"/>
<glyph unicode="&#xD7;" horiz-adv-x="640" d="M474,103l95,95l-159,155l159,155l-93,93l-155,-159l-155,159l-95,-95l159,-155l-159,-155l93,-93l155,159z"/>
<glyph unicode="n" horiz-adv-x="623" d="M68,0l152,0l0,299C220,371 257,408 315,408C373,408 407,371 407,299l0,-299l152,0l0,347C559,470 492,546 377,546C300,546 255,505 220,460l0,76l-152,0z"/>
<glyph unicode="&#x144;" horiz-adv-x="623" d="M68,0l152,0l0,299C220,371 257,408 315,408C373,408 407,371 407,299l0,-299l152,0l0,347C559,470 492,546 377,546C300,546 255,505 220,460l0,76l-152,0M253,595l112,0l130,120l-131,57z"/>
<glyph unicode="&#x148;" horiz-adv-x="623" d="M68,0l152,0l0,299C220,371 257,408 315,408C373,408 407,371 407,299l0,-299l152,0l0,347C559,470 492,546 377,546C300,546 255,505 220,460l0,76l-152,0M508,752l-115,0l-79,-66l-79,66l-117,0l123,-157l144,0z"/>
<glyph unicode="&#x146;" horiz-adv-x="623" d="M68,0l152,0l0,299C220,371 257,408 315,408C373,408 407,371 407,299l0,-299l152,0l0,347C559,470 492,546 377,546C300,546 255,505 220,460l0,76l-152,0M240,-292C332,-290 382,-252 382,-156l0,97l-138,0l0,-115l64,0C311,-216 285,-241 232,-246z"/>
<glyph unicode="9" horiz-adv-x="662" d="M302,-12C501,-12 608,143 608,370l0,2C608,510 575,586 525,636C472,689 417,712 323,712C165,712 56,608 56,467l0,-2C56,323 154,239 306,239C367,239 414,258 448,287C438,193 392,128 306,128C247,128 204,147 153,188l-81,-117C131,22 200,-12 302,-12M331,367C255,367 209,410 209,472l0,2C209,536 252,580 328,580C405,580 451,535 451,473l0,-2C451,411 407,367 331,367z"/>
<glyph unicode="&#xF1;" horiz-adv-x="623" d="M68,0l152,0l0,299C220,371 257,408 315,408C373,408 407,371 407,299l0,-299l152,0l0,347C559,470 492,546 377,546C300,546 255,505 220,460l0,76l-152,0M193,585C207,617 219,634 250,634C286,634 338,595 400,595C470,595 501,649 524,733l-81,25C429,726 417,709 386,709C350,709 298,748 236,748C166,748 135,694 112,610z"/>
<glyph unicode="#" horiz-adv-x="700" d="M630,278l-89,0l26,148l98,0l0,128l-76,0l25,146l-132,0l-25,-146l-145,0l25,146l-132,0l-25,-146l-110,0l0,-128l88,0l-26,-148l-97,0l0,-128l75,0l-25,-150l132,0l26,150l144,0l-25,-150l132,0l25,150l111,0M287,430l151,0l-26,-156l-151,0z"/>
<glyph unicode="o" horiz-adv-x="664" d="M331,-12C498,-12 622,113 622,267l0,2C622,423 499,546 333,546C166,546 42,421 42,267l0,-2C42,111 165,-12 331,-12M333,119C249,119 192,188 192,267l0,2C192,348 244,415 331,415C415,415 472,346 472,267l0,-2C472,186 420,119 333,119z"/>
<glyph unicode="&#xF3;" horiz-adv-x="664" d="M331,-12C498,-12 622,113 622,267l0,2C622,423 499,546 333,546C166,546 42,421 42,267l0,-2C42,111 165,-12 331,-12M333,119C249,119 192,188 192,267l0,2C192,348 244,415 331,415C415,415 472,346 472,267l0,-2C472,186 420,119 333,119M272,595l112,0l130,120l-131,57z"/>
<glyph unicode="&#x14F;" horiz-adv-x="664" d="M331,-12C498,-12 622,113 622,267l0,2C622,423 499,546 333,546C166,546 42,421 42,267l0,-2C42,111 165,-12 331,-12M333,119C249,119 192,188 192,267l0,2C192,348 244,415 331,415C415,415 472,346 472,267l0,-2C472,186 420,119 333,119M332,593C438,593 511,651 520,752l-102,0C406,716 382,692 332,692C282,692 258,716 246,752l-102,0C153,651 226,593 332,593z"/>
<glyph unicode="&#xF4;" horiz-adv-x="664" d="M331,-12C498,-12 622,113 622,267l0,2C622,423 499,546 333,546C166,546 42,421 42,267l0,-2C42,111 165,-12 331,-12M333,119C249,119 192,188 192,267l0,2C192,348 244,415 331,415C415,415 472,346 472,267l0,-2C472,186 420,119 333,119M137,595l115,0l79,66l79,-66l117,0l-123,157l-144,0z"/>
<glyph unicode="&#xF6;" horiz-adv-x="664" d="M331,-12C498,-12 622,113 622,267l0,2C622,423 499,546 333,546C166,546 42,421 42,267l0,-2C42,111 165,-12 331,-12M333,119C249,119 192,188 192,267l0,2C192,348 244,415 331,415C415,415 472,346 472,267l0,-2C472,186 420,119 333,119M363,595l146,0l0,135l-146,0M155,595l146,0l0,135l-146,0z"/>
<glyph unicode="&#x153;" horiz-adv-x="1033" d="M322,-12C406,-12 479,23 528,79C579,22 654,-12 742,-12C839,-12 911,26 961,88l-87,77C832,126 795,110 744,110C676,110 628,146 613,215l373,0C987,229 988,243 988,255C988,407 906,546 727,546C646,546 577,512 530,457C482,512 411,546 328,546C169,546 42,421 42,267l0,-2C42,111 169,-12 322,-12M611,310C623,379 664,424 727,424C791,424 831,378 840,310M328,119C247,119 192,188 192,267l0,2C192,346 242,415 326,415C407,415 462,346 462,267l0,-2C462,186 412,119 328,119z"/>
<glyph unicode="&#x2DB;" horiz-adv-x="500" d="M356,-164l0,67C312,-99 286,-85 286,-56C286,-38 295,-16 320,10l-101,0C194,-20 177,-48 177,-80C177,-137 241,-180 356,-164z"/>
<glyph unicode="&#xF2;" horiz-adv-x="664" d="M331,-12C498,-12 622,113 622,267l0,2C622,423 499,546 333,546C166,546 42,421 42,267l0,-2C42,111 165,-12 331,-12M333,119C249,119 192,188 192,267l0,2C192,348 244,415 331,415C415,415 472,346 472,267l0,-2C472,186 420,119 333,119M280,595l112,0l-111,177l-131,-57z"/>
<glyph unicode="&#x151;" horiz-adv-x="664" d="M331,-12C498,-12 622,113 622,267l0,2C622,423 499,546 333,546C166,546 42,421 42,267l0,-2C42,111 165,-12 331,-12M333,119C249,119 192,188 192,267l0,2C192,348 244,415 331,415C415,415 472,346 472,267l0,-2C472,186 420,119 333,119M359,595l107,0l132,120l-128,57M174,595l107,0l130,120l-128,57z"/>
<glyph unicode="&#x14D;" horiz-adv-x="664" d="M331,-12C498,-12 622,113 622,267l0,2C622,423 499,546 333,546C166,546 42,421 42,267l0,-2C42,111 165,-12 331,-12M333,119C249,119 192,188 192,267l0,2C192,348 244,415 331,415C415,415 472,346 472,267l0,-2C472,186 420,119 333,119M152,600l360,0l0,105l-360,0z"/>
<glyph unicode="1" horiz-adv-x="422" d="M178,0l152,0l0,705l-105,0l-201,-60l32,-126l122,30z"/>
<glyph unicode="&#xAA;" horiz-adv-x="390" d="M153,399C194,399 222,414 242,437l0,-32l81,0l0,171C323,615 313,648 291,670C270,691 237,703 191,703C141,703 110,694 77,679l21,-63C125,626 148,632 179,632C221,632 243,612 243,578l0,-5C222,580 200,585 171,585C101,585 52,555 52,491l0,-2C52,431 97,399 153,399M49,277l278,0l0,66l-278,0M178,457C151,457 133,471 133,493l0,2C133,521 155,535 190,535C211,535 229,530 244,524l0,-15C244,479 217,457 178,457z"/>
<glyph unicode="&#xBA;" horiz-adv-x="390" d="M194,398C282,398 349,466 349,551l0,2C349,638 284,705 196,705C108,705 41,637 41,552l0,-2C41,465 106,398 194,398M51,277l288,0l0,66l-288,0M196,470C152,470 123,508 123,551l0,2C123,596 150,633 194,633C238,633 267,595 267,552l0,-2C267,507 240,470 196,470z"/>
<glyph unicode="&#xF8;" horiz-adv-x="664" d="M504,541l-28,-30C435,533 386,546 333,546C166,546 42,421 42,267l0,-2C42,197 66,135 107,87l-80,-92l133,0l27,28C229,1 277,-12 331,-12C498,-12 622,113 622,267l0,2C622,337 597,400 556,448l81,93M188,267l0,2C188,350 241,419 331,419C352,419 371,414 388,407l-184,-212C194,217 188,241 188,267M333,115C312,115 293,119 276,126l183,213C470,317 476,292 476,267l0,-2C476,184 423,115 333,115z"/>
<glyph unicode="&#x1FF;" horiz-adv-x="664" d="M504,541l-28,-30C435,533 386,546 333,546C166,546 42,421 42,267l0,-2C42,197 66,135 107,87l-80,-92l133,0l27,28C229,1 277,-12 331,-12C498,-12 622,113 622,267l0,2C622,337 597,400 556,448l81,93M272,595l112,0l130,120l-131,57M188,267l0,2C188,350 241,419 331,419C352,419 371,414 388,407l-184,-212C194,217 188,241 188,267M333,115C312,115 293,119 276,126l183,213C470,317 476,292 476,267l0,-2C476,184 423,115 333,115z"/>
<glyph unicode="&#xF5;" horiz-adv-x="664" d="M331,-12C498,-12 622,113 622,267l0,2C622,423 499,546 333,546C166,546 42,421 42,267l0,-2C42,111 165,-12 331,-12M333,119C249,119 192,188 192,267l0,2C192,348 244,415 331,415C415,415 472,346 472,267l0,-2C472,186 420,119 333,119M212,585C226,617 238,634 269,634C305,634 357,595 419,595C489,595 520,649 543,733l-81,25C448,726 436,709 405,709C369,709 317,748 255,748C185,748 154,694 131,610z"/>
<glyph unicode="p" horiz-adv-x="675" d="M68,-160l152,0l0,230C256,27 306,-10 387,-10C514,-10 631,88 631,267l0,2C631,448 512,546 387,546C308,546 257,509 220,459l0,77l-152,0M348,119C277,119 218,178 218,267l0,2C218,358 277,417 348,417C419,417 479,358 479,269l0,-2C479,177 419,119 348,119z"/>
<glyph unicode="&#xB6;" horiz-adv-x="590" d="M352,0l154,0l0,700l-195,0C147,700 35,612 35,465l0,-2C35,308 160,230 328,230l24,0z"/>
<glyph unicode="(" horiz-adv-x="445" d="M336,-141l67,101C268,54 210,146 210,287C210,428 268,520 403,614l-67,101C152,615 59,479 59,287C59,95 152,-41 336,-141z"/>
<glyph unicode=")" horiz-adv-x="445" d="M109,-141C293,-41 386,95 386,287C386,479 293,615 109,715l-67,-101C177,520 235,428 235,287C235,146 177,54 42,-40z"/>
<glyph unicode="%" horiz-adv-x="860" d="M214,350C316,350 385,431 385,529l0,2C385,629 317,708 216,708C114,708 45,628 45,529l0,-2C45,429 113,350 214,350M280,527C280,482 258,441 216,441C176,441 150,482 150,529l0,2C150,577 172,617 214,617C254,617 280,576 280,529M395,377l-280,-377l119,0l231,323l280,377l-119,0M644,-8C746,-8 815,73 815,171l0,2C815,271 747,350 646,350C544,350 475,270 475,171l0,-2C475,71 543,-8 644,-8M646,83C606,83 580,124 580,171l0,2C580,219 602,259 644,259C684,259 710,218 710,171l0,-2C710,124 688,83 646,83z"/>
<glyph unicode="." horiz-adv-x="286" d="M62,0l162,0l0,160l-162,0z"/>
<glyph unicode="&#xB7;" horiz-adv-x="286" d="M62,230l162,0l0,160l-162,0z"/>
<glyph unicode="&#x2030;" horiz-adv-x="1240" d="M214,350C316,350 385,431 385,529l0,2C385,629 317,708 216,708C114,708 45,628 45,529l0,-2C45,429 113,350 214,350M1024,-8C1126,-8 1195,73 1195,171l0,2C1195,271 1127,350 1026,350C924,350 855,270 855,171l0,-2C855,71 923,-8 1024,-8M644,-8C746,-8 815,73 815,171l0,2C815,271 747,350 646,350C544,350 475,270 475,171l0,-2C475,71 543,-8 644,-8M216,441C176,441 150,482 150,529l0,2C150,577 172,617 214,617C254,617 280,576 280,529l0,-2C280,482 258,441 216,441M1026,83C986,83 960,124 960,171l0,2C960,219 982,259 1024,259C1064,259 1090,218 1090,171l0,-2C1090,124 1068,83 1026,83M646,83C606,83 580,124 580,171l0,2C580,219 602,259 644,259C684,259 710,218 710,171l0,-2C710,124 688,83 646,83M395,377l-280,-377l119,0l231,323l280,377l-119,0z"/>
<glyph unicode="+" horiz-adv-x="640" d="M249,103l142,0l0,180l181,0l0,138l-181,0l0,180l-142,0l0,-180l-181,0l0,-138l181,0z"/>
<glyph unicode="&#xB1;" horiz-adv-x="640" d="M567,379l0,132l-180,-1l1,177l-136,0l1,-177l-180,1l0,-132l180,1l-1,-177l136,0l-1,177M567,0l0,126l-494,0l0,-126z"/>
<glyph unicode="&#x2117;" horiz-adv-x="830" d="M414,-12C617,-12 777,153 777,350l0,2C777,549 619,712 416,712C213,712 53,547 53,350l0,-2C53,151 211,-12 414,-12M414,28C232,28 95,171 95,348l0,2C95,527 233,672 416,672C598,672 735,529 735,352l0,-2C735,173 597,28 414,28M282,164l86,0l0,116l64,0C518,280 588,326 588,414l0,2C588,495 532,549 440,549l-158,0M368,355l0,118l64,0C474,473 501,452 501,415l0,-2C501,380 476,355 434,355z"/>
<glyph unicode="q" horiz-adv-x="675" d="M455,-160l152,0l0,696l-152,0l0,-70C419,509 369,546 288,546C161,546 44,448 44,269l0,-2C44,88 163,-10 288,-10C367,-10 418,27 455,77M327,119C256,119 196,178 196,267l0,2C196,359 256,417 327,417C398,417 457,358 457,269l0,-2C457,178 398,119 327,119z"/>
<glyph unicode="?" horiz-adv-x="544" d="M197,238l102,0l11,61C419,321 507,373 507,500l0,2C507,635 409,709 265,709C156,709 78,665 20,601l92,-101C158,546 206,569 262,569C320,569 354,543 354,498l0,-2C354,443 305,410 179,405l-5,-5M164,0l162,0l0,160l-162,0z"/>
<glyph unicode="&#xBF;" horiz-adv-x="544" d="M218,540l162,0l0,160l-162,0M279,-9C388,-9 466,35 524,99l-92,101C386,154 338,131 282,131C224,131 190,157 190,202l0,2C190,257 239,290 365,295l5,5l-23,162l-102,0l-11,-61C125,379 37,327 37,200l0,-2C37,65 135,-9 279,-9z"/>
<glyph unicode="&quot;" horiz-adv-x="520" d="M293,381l77,0l109,314l0,5l-168,0M57,381l77,0l109,314l0,5l-168,0z"/>
<glyph unicode="&#x201E;" horiz-adv-x="540" d="M293,-162C412,-160 478,-107 478,25l0,135l-162,0l0,-160l62,0C383,-57 349,-92 280,-99M39,-162C158,-160 224,-107 224,25l0,135l-162,0l0,-160l62,0C129,-57 95,-92 26,-99z"/>
<glyph unicode="&#x201C;" horiz-adv-x="540" d="M311,383l162,0l0,160l-62,0C406,600 440,635 509,642l-13,63C377,703 311,650 311,518M57,383l162,0l0,160l-62,0C152,600 186,635 255,642l-13,63C123,703 57,650 57,518z"/>
<glyph unicode="&#x201D;" horiz-adv-x="540" d="M298,378C417,380 483,433 483,565l0,135l-162,0l0,-160l62,0C388,483 354,448 285,441M44,378C163,380 229,433 229,565l0,135l-162,0l0,-160l62,0C134,483 100,448 31,441z"/>
<glyph unicode="&#x2018;" horiz-adv-x="286" d="M57,383l162,0l0,160l-62,0C152,600 186,635 255,642l-13,63C123,703 57,650 57,518z"/>
<glyph unicode="&#x2019;" horiz-adv-x="286" d="M44,378C163,380 229,433 229,565l0,135l-162,0l0,-160l62,0C134,483 100,448 31,441z"/>
<glyph unicode="&#x201A;" horiz-adv-x="286" d="M39,-162C158,-160 224,-107 224,25l0,135l-162,0l0,-160l62,0C129,-57 95,-92 26,-99z"/>
<glyph unicode="'" horiz-adv-x="286" d="M57,381l79,0l109,314l0,5l-170,0z"/>
<glyph unicode="r" horiz-adv-x="418" d="M68,0l152,0l0,198C220,326 282,387 383,387l8,0l0,159C301,550 251,502 220,428l0,108l-152,0z"/>
<glyph unicode="&#x155;" horiz-adv-x="418" d="M68,0l152,0l0,198C220,326 282,387 383,387l8,0l0,159C301,550 251,502 220,428l0,108l-152,0M169,595l112,0l130,120l-131,57z"/>
<glyph unicode="&#x159;" horiz-adv-x="418" d="M68,0l152,0l0,198C220,326 282,387 383,387l8,0l0,159C301,550 251,502 220,428l0,108l-152,0M424,752l-115,0l-79,-66l-79,66l-117,0l123,-157l144,0z"/>
<glyph unicode="&#x157;" horiz-adv-x="418" d="M68,0l152,0l0,198C220,326 282,387 383,387l8,0l0,159C301,550 251,502 220,428l0,108l-152,0M77,-292C169,-290 219,-252 219,-156l0,97l-138,0l0,-115l64,0C148,-216 122,-241 69,-246z"/>
<glyph unicode="&#xAE;" horiz-adv-x="368" d="M184,360C281,360 358,440 358,535l0,1C358,631 282,710 184,710C87,710 10,630 10,535l0,-1C10,439 86,360 184,360M184,379C96,379 30,449 30,534l0,1C30,620 97,691 184,691C272,691 338,621 338,536l0,-1C338,450 271,379 184,379M108,446l52,0l0,55l22,0l37,-55l60,0l-44,64C258,519 273,539 273,568C273,611 241,630 196,630l-88,0M160,542l0,44l33,0C211,586 221,578 221,564C221,551 211,542 193,542z"/>
<glyph unicode="&#x2DA;" horiz-adv-x="500" d="M129,710C129,645 183,593 250,593C317,593 371,645 371,710C371,775 317,827 250,827C183,827 129,775 129,710M184,710C184,746 214,776 250,776C286,776 316,746 316,710C316,674 286,644 250,644C214,644 184,674 184,710z"/>
<glyph unicode="s" horiz-adv-x="502" d="M256,-10C372,-10 461,44 461,163l0,2C461,263 374,299 299,324C241,344 190,358 190,388l0,2C190,411 209,427 246,427C285,427 338,408 391,377l58,105C391,521 317,544 249,544C141,544 53,483 53,374l0,-2C53,268 138,233 213,211C272,193 324,182 324,149l0,-2C324,123 304,107 260,107C210,107 149,129 91,171l-65,-100C97,15 181,-10 256,-10z"/>
<glyph unicode="&#x15B;" horiz-adv-x="502" d="M256,-10C372,-10 461,44 461,163l0,2C461,263 374,299 299,324C241,344 190,358 190,388l0,2C190,411 209,427 246,427C285,427 338,408 391,377l58,105C391,521 317,544 249,544C141,544 53,483 53,374l0,-2C53,268 138,233 213,211C272,193 324,182 324,149l0,-2C324,123 304,107 260,107C210,107 149,129 91,171l-65,-100C97,15 181,-10 256,-10M194,595l112,0l130,120l-131,57z"/>
<glyph unicode="&#x161;" horiz-adv-x="502" d="M256,-10C372,-10 461,44 461,163l0,2C461,263 374,299 299,324C241,344 190,358 190,388l0,2C190,411 209,427 246,427C285,427 338,408 391,377l58,105C391,521 317,544 249,544C141,544 53,483 53,374l0,-2C53,268 138,233 213,211C272,193 324,182 324,149l0,-2C324,123 304,107 260,107C210,107 149,129 91,171l-65,-100C97,15 181,-10 256,-10M449,752l-115,0l-79,-66l-79,66l-117,0l123,-157l144,0z"/>
<glyph unicode="&#x15F;" horiz-adv-x="502" d="M236,-173l67,166C395,6 461,60 461,163l0,2C461,263 374,299 299,324C241,344 190,358 190,388l0,2C190,411 209,427 246,427C285,427 338,408 391,377l58,105C391,521 317,544 249,544C141,544 53,483 53,374l0,-2C53,268 138,233 213,211C272,193 324,182 324,149l0,-2C324,123 304,107 260,107C210,107 149,129 91,171l-65,-100C76,31 133,7 189,-3l-80,-117z"/>
<glyph unicode="&#x259;" horiz-adv-x="613" d="M291,548C194,548 122,510 72,448l87,-77C201,410 238,426 289,426C357,426 405,390 420,321l-373,0C46,307 45,293 45,281C45,129 127,-10 306,-10C462,-10 571,116 571,269l0,2C571,435 452,548 291,548M422,226C410,157 369,112 306,112C242,112 202,158 193,226z"/>
<glyph unicode="&#x219;" horiz-adv-x="502" d="M256,-10C372,-10 461,44 461,163l0,2C461,263 374,299 299,324C241,344 190,358 190,388l0,2C190,411 209,427 246,427C285,427 338,408 391,377l58,105C391,521 317,544 249,544C141,544 53,483 53,374l0,-2C53,268 138,233 213,211C272,193 324,182 324,149l0,-2C324,123 304,107 260,107C210,107 149,129 91,171l-65,-100C97,15 181,-10 256,-10M181,-292C273,-290 323,-252 323,-156l0,97l-138,0l0,-115l64,0C252,-216 226,-241 173,-246z"/>
<glyph unicode="&#xA7;" horiz-adv-x="632" d="M325,-10C455,-10 530,51 530,145l0,2C530,182 515,217 488,238C536,256 577,289 577,355l0,2C577,434 513,471 355,506C260,527 245,540 245,561l0,2C245,585 269,599 311,599C366,599 412,575 458,533l82,82C484,676 409,710 307,710C179,710 102,650 102,555l0,-2C102,519 115,485 144,462C96,444 55,412 55,345l0,-2C55,268 119,229 277,194C365,175 387,162 387,139l0,-2C387,116 366,101 321,101C266,101 220,125 174,167l-82,-82C148,24 223,-10 325,-10M389,289C368,289 341,294 289,307C220,324 188,339 188,365l0,2C188,395 212,411 243,411C264,411 291,406 343,393C412,376 444,361 444,335l0,-2C444,305 420,289 389,289z"/>
<glyph unicode=";" horiz-adv-x="296" d="M67,376l162,0l0,160l-162,0M44,-162C163,-160 229,-107 229,25l0,135l-162,0l0,-160l62,0C134,-57 100,-92 31,-99z"/>
<glyph unicode="&#x2120;" horiz-adv-x="703" d="M358,392l66,0l0,208l85,-135l6,0l85,135l0,-208l66,0l0,308l-72,0l-81,-130l-81,130l-74,0M170,386C244,386 294,422 294,482C294,537 247,560 180,575C128,587 110,596 110,617C110,635 126,649 159,649C192,649 222,635 249,616l36,48C255,690 210,706 161,706C88,706 44,666 44,609C44,550 93,532 159,516C213,503 228,494 228,474C228,454 209,441 174,441C132,441 96,459 65,483l-37,-46C65,406 120,386 170,386z"/>
<glyph unicode="7" horiz-adv-x="619" d="M84,0l174,0l314,584l0,116l-504,0l0,-133l329,0z"/>
<glyph unicode="6" horiz-adv-x="662" d="M339,-12C491,-12 606,87 606,230l0,2C606,378 499,455 360,455C291,455 250,433 215,410C225,502 269,572 356,572C416,572 453,551 499,516l81,119C518,684 456,712 361,712C152,712 54,546 54,330l0,-2C54,189 86,114 137,63C186,14 248,-12 339,-12M333,120C257,120 211,165 211,224l0,2C211,285 255,327 331,327C407,327 453,284 453,225l0,-2C453,163 409,120 333,120z"/>
<glyph unicode="/" horiz-adv-x="530" d="M-28,-128l129,0l443,926l-129,0z"/>
<glyph unicode=" " horiz-adv-x="300"/>
<glyph unicode="&#xA3;" horiz-adv-x="644" d="M60,0l536,0l0,133l-304,0l0,134l228,0l0,127l-228,0l0,77C292,503 302,529 318,545C333,560 351,567 375,567C418,567 447,545 481,501l117,94C550,660 486,710 373,710C296,710 237,687 196,646C157,607 136,547 136,475l0,-81l-76,0l0,-127l76,0l0,-141l-76,-25z"/>
<glyph unicode="t" horiz-adv-x="415" d="M249,-9C300,-9 337,3 369,22l0,122C347,132 322,125 294,125C260,125 245,142 245,177l0,229l126,0l0,130l-126,0l0,137l-152,0l0,-137l-64,0l0,-130l64,0l0,-254C93,28 156,-9 249,-9z"/>
<glyph unicode="&#x165;" horiz-adv-x="415" d="M249,-9C300,-9 337,3 369,22l0,122C347,132 322,125 294,125C260,125 245,142 245,177l0,229l126,0l0,130l-126,0l0,137l-152,0l0,-137l-64,0l0,-130l64,0l0,-254C93,28 156,-9 249,-9M309,592l60,0l59,205l0,3l-109,0z"/>
<glyph unicode="&#x163;" horiz-adv-x="415" d="M249,-9C300,-9 337,3 369,22l0,122C347,132 322,125 294,125C260,125 245,142 245,177l0,229l126,0l0,130l-126,0l0,137l-152,0l0,-137l-64,0l0,-130l64,0l0,-254C93,28 156,-9 249,-9M149,-292C241,-290 291,-252 291,-156l0,97l-138,0l0,-115l64,0C220,-216 194,-241 141,-246z"/>
<glyph unicode="&#x2009;" horiz-adv-x="133"/>
<glyph unicode="&#xFE;" horiz-adv-x="675" d="M68,-160l152,0l0,230C256,27 306,-10 387,-10C514,-10 631,88 631,267l0,2C631,448 512,546 387,546C308,546 257,509 220,459l0,271l-152,0M348,119C277,119 218,178 218,267l0,2C218,358 277,417 348,417C419,417 479,358 479,269l0,-2C479,177 419,119 348,119z"/>
<glyph unicode="3" horiz-adv-x="621" d="M311,-12C467,-12 563,85 563,217l0,2C563,349 470,399 375,415l177,169l0,116l-473,0l0,-132l275,0l-167,-168l24,-98l64,0C361,302 412,270 412,213l0,-2C412,159 371,126 313,126C242,126 192,156 144,210l-106,-101C98,38 185,-12 311,-12z"/>
<glyph unicode="&#x2004;" horiz-adv-x="333"/>
<glyph unicode="&#x2DC;" horiz-adv-x="500" d="M125,585C139,617 151,634 182,634C218,634 270,595 332,595C402,595 433,649 456,733l-81,25C361,726 349,709 318,709C282,709 230,748 168,748C98,748 67,694 44,610z"/>
<glyph unicode="&#x2122;" horiz-adv-x="690" d="M345,392l66,0l0,208l85,-135l6,0l85,135l0,-208l66,0l0,308l-72,0l-81,-130l-81,130l-74,0M118,392l70,0l0,246l92,0l0,62l-254,0l0,-62l92,0z"/>
<glyph unicode="2" horiz-adv-x="623" d="M49,0l518,0l0,133l-305,0l114,88C500,317 560,375 560,492l0,2C560,625 464,710 319,710C194,710 127,659 58,565l108,-87C218,542 255,572 309,572C364,572 403,540 403,481C403,423 369,385 282,313l-233,-191z"/>
<glyph unicode="u" horiz-adv-x="623" d="M246,-10C323,-10 368,31 403,76l0,-76l152,0l0,536l-152,0l0,-299C403,165 366,128 308,128C250,128 216,165 216,237l0,299l-152,0l0,-347C64,66 131,-10 246,-10z"/>
<glyph unicode="&#xFA;" horiz-adv-x="623" d="M246,-10C323,-10 368,31 403,76l0,-76l152,0l0,536l-152,0l0,-299C403,165 366,128 308,128C250,128 216,165 216,237l0,299l-152,0l0,-347C64,66 131,-10 246,-10M249,595l112,0l130,120l-131,57z"/>
<glyph unicode="&#x16D;" horiz-adv-x="623" d="M246,-10C323,-10 368,31 403,76l0,-76l152,0l0,536l-152,0l0,-299C403,165 366,128 308,128C250,128 216,165 216,237l0,299l-152,0l0,-347C64,66 131,-10 246,-10M309,593C415,593 488,651 497,752l-102,0C383,716 359,692 309,692C259,692 235,716 223,752l-102,0C130,651 203,593 309,593z"/>
<glyph unicode="&#xFB;" horiz-adv-x="623" d="M246,-10C323,-10 368,31 403,76l0,-76l152,0l0,536l-152,0l0,-299C403,165 366,128 308,128C250,128 216,165 216,237l0,299l-152,0l0,-347C64,66 131,-10 246,-10M114,595l115,0l79,66l79,-66l117,0l-123,157l-144,0z"/>
<glyph unicode="&#xFC;" horiz-adv-x="623" d="M246,-10C323,-10 368,31 403,76l0,-76l152,0l0,536l-152,0l0,-299C403,165 366,128 308,128C250,128 216,165 216,237l0,299l-152,0l0,-347C64,66 131,-10 246,-10M340,595l146,0l0,135l-146,0M132,595l146,0l0,135l-146,0z"/>
<glyph unicode="&#xF9;" horiz-adv-x="623" d="M246,-10C323,-10 368,31 403,76l0,-76l152,0l0,536l-152,0l0,-299C403,165 366,128 308,128C250,128 216,165 216,237l0,299l-152,0l0,-347C64,66 131,-10 246,-10M257,595l112,0l-111,177l-131,-57z"/>
<glyph unicode="&#x171;" horiz-adv-x="623" d="M246,-10C323,-10 368,31 403,76l0,-76l152,0l0,536l-152,0l0,-299C403,165 366,128 308,128C250,128 216,165 216,237l0,299l-152,0l0,-347C64,66 131,-10 246,-10M336,595l107,0l132,120l-128,57M151,595l107,0l130,120l-128,57z"/>
<glyph unicode="&#x16B;" horiz-adv-x="623" d="M246,-10C323,-10 368,31 403,76l0,-76l152,0l0,536l-152,0l0,-299C403,165 366,128 308,128C250,128 216,165 216,237l0,299l-152,0l0,-347C64,66 131,-10 246,-10M129,600l360,0l0,105l-360,0z"/>
<glyph unicode="_" horiz-adv-x="600" d="M-2,-160l604,0l0,116l-604,0z"/>
<glyph unicode="&#xA0;" horiz-adv-x="300"/>
<glyph unicode="&#x173;" horiz-adv-x="623" d="M565,-164l0,67C521,-99 495,-85 495,-56C495,-40 502,-21 520,0l35,0l0,536l-152,0l0,-299C403,165 366,128 308,128C250,128 216,165 216,237l0,299l-152,0l0,-347C64,66 131,-10 246,-10C323,-10 368,31 403,76l0,-76l16,0C399,-26 386,-51 386,-80C386,-137 450,-180 565,-164z"/>
<glyph unicode="&#x16F;" horiz-adv-x="623" d="M246,-10C323,-10 368,31 403,76l0,-76l152,0l0,536l-152,0l0,-299C403,165 366,128 308,128C250,128 216,165 216,237l0,299l-152,0l0,-347C64,66 131,-10 246,-10M188,695C188,630 242,578 309,578C376,578 430,630 430,695C430,760 376,812 309,812C242,812 188,760 188,695M243,695C243,731 273,761 309,761C345,761 375,731 375,695C375,659 345,629 309,629C273,629 243,659 243,695z"/>
<glyph unicode="v" horiz-adv-x="600" d="M231,-4l138,0l211,540l-158,0l-121,-359l-120,359l-161,0z"/>
<glyph unicode="w" horiz-adv-x="861" d="M189,-4l136,0l105,329l103,-329l137,0l167,540l-151,0l-88,-326l-102,328l-131,0l-101,-327l-86,325l-154,0z"/>
<glyph unicode="&#x1E83;" horiz-adv-x="861" d="M189,-4l136,0l105,329l103,-329l137,0l167,540l-151,0l-88,-326l-102,328l-131,0l-101,-327l-86,325l-154,0M370,595l112,0l130,120l-131,57z"/>
<glyph unicode="&#x175;" horiz-adv-x="861" d="M189,-4l136,0l105,329l103,-329l137,0l167,540l-151,0l-88,-326l-102,328l-131,0l-101,-327l-86,325l-154,0M235,595l115,0l79,66l79,-66l117,0l-123,157l-144,0z"/>
<glyph unicode="&#x1E85;" horiz-adv-x="861" d="M189,-4l136,0l105,329l103,-329l137,0l167,540l-151,0l-88,-326l-102,328l-131,0l-101,-327l-86,325l-154,0M461,595l146,0l0,135l-146,0M253,595l146,0l0,135l-146,0z"/>
<glyph unicode="&#x1E81;" horiz-adv-x="861" d="M189,-4l136,0l105,329l103,-329l137,0l167,540l-151,0l-88,-326l-102,328l-131,0l-101,-327l-86,325l-154,0M378,595l112,0l-111,177l-131,-57z"/>
<glyph unicode="x" horiz-adv-x="584" d="M398,0l163,0l-189,274l181,262l-159,0l-101,-157l-100,157l-163,0l181,-264l-188,-272l159,0l108,167z"/>
<glyph unicode="y" horiz-adv-x="600" d="M196,-163C287,-163 331,-122 372,-13l206,549l-158,0l-117,-365l-122,365l-161,0l210,-538C217,-29 203,-37 177,-37C157,-37 132,-28 112,-16l-51,-110C100,-149 141,-163 196,-163z"/>
<glyph unicode="&#xFD;" horiz-adv-x="600" d="M196,-163C287,-163 331,-122 372,-13l206,549l-158,0l-117,-365l-122,365l-161,0l210,-538C217,-29 203,-37 177,-37C157,-37 132,-28 112,-16l-51,-110C100,-149 141,-163 196,-163M239,595l112,0l130,120l-131,57z"/>
<glyph unicode="&#x177;" horiz-adv-x="600" d="M196,-163C287,-163 331,-122 372,-13l206,549l-158,0l-117,-365l-122,365l-161,0l210,-538C217,-29 203,-37 177,-37C157,-37 132,-28 112,-16l-51,-110C100,-149 141,-163 196,-163M104,595l115,0l79,66l79,-66l117,0l-123,157l-144,0z"/>
<glyph unicode="&#xFF;" horiz-adv-x="600" d="M196,-163C287,-163 331,-122 372,-13l206,549l-158,0l-117,-365l-122,365l-161,0l210,-538C217,-29 203,-37 177,-37C157,-37 132,-28 112,-16l-51,-110C100,-149 141,-163 196,-163M330,595l146,0l0,135l-146,0M122,595l146,0l0,135l-146,0z"/>
<glyph unicode="&#xA5;" horiz-adv-x="686" d="M85,262l184,0l0,-62l-184,0l0,-108l184,0l0,-92l148,0l0,92l184,0l0,108l-184,0l0,62l184,0l0,108l-144,0l215,330l-172,0l-156,-259l-153,259l-177,0l214,-330l-143,0z"/>
<glyph unicode="&#x1EF3;" horiz-adv-x="600" d="M196,-163C287,-163 331,-122 372,-13l206,549l-158,0l-117,-365l-122,365l-161,0l210,-538C217,-29 203,-37 177,-37C157,-37 132,-28 112,-16l-51,-110C100,-149 141,-163 196,-163M247,595l112,0l-111,177l-131,-57z"/>
<glyph unicode="z" horiz-adv-x="563" d="M50,0l466,0l0,123l-278,0l278,306l0,107l-457,0l0,-123l268,0l-277,-306z"/>
<glyph unicode="&#x17A;" horiz-adv-x="563" d="M50,0l466,0l0,123l-278,0l278,306l0,107l-457,0l0,-123l268,0l-277,-306M223,595l112,0l130,120l-131,57z"/>
<glyph unicode="&#x17E;" horiz-adv-x="563" d="M50,0l466,0l0,123l-278,0l278,306l0,107l-457,0l0,-123l268,0l-277,-306M478,752l-115,0l-79,-66l-79,66l-117,0l123,-157l144,0z"/>
<glyph unicode="&#x17C;" horiz-adv-x="563" d="M50,0l466,0l0,123l-278,0l278,306l0,107l-457,0l0,-123l268,0l-277,-306M208,595l150,0l0,135l-150,0z"/>
<glyph unicode="0" horiz-adv-x="730" d="M364,-12C551,-12 676,147 676,350l0,2C676,555 551,712 366,712C180,712 54,553 54,350l0,-2C54,145 177,-12 364,-12M366,127C273,127 212,222 212,350l0,2C212,480 272,573 364,573C456,573 518,477 518,350l0,-2C518,221 459,127 366,127z"/>
</font>
</svg>
